<svg width="201" height="75" viewBox="0 0 201 75" fill="none" xmlns="http://www.w3.org/2000/svg">
<path d="M86.8409 57.8455C87.6177 58.3282 88.5205 58.5689 89.4345 58.5371C90.8755 58.5371 92.0858 57.7879 92.0858 56.1164C92.0858 53.8109 86.668 53.5227 86.668 50.468C86.668 48.566 88.3971 47.3556 90.4144 47.3556C90.9907 47.3556 91.9129 47.4709 92.7198 47.759L92.5469 48.7965C92.0282 48.5083 91.2213 48.3931 90.4144 48.3931C89.204 48.3931 87.8783 48.9118 87.8783 50.4103C87.8783 52.7735 93.2386 52.7735 93.2386 56.2317C93.2386 58.5948 91.2213 59.5746 89.3769 59.5746C88.2242 59.5746 87.3596 59.3441 86.7256 58.9982L86.8409 57.8455ZM101.25 59.0559C100.501 59.4017 99.521 59.5746 98.7717 59.5746C95.8899 59.5746 94.8524 57.615 94.8524 55.0213C94.8524 52.4276 96.2933 50.5256 98.4835 50.5256C100.904 50.5256 101.942 52.4853 101.942 54.7907V55.3671H96.0051C96.0051 57.1539 96.985 58.6524 98.887 58.6524C99.6363 58.6524 100.731 58.3066 101.25 58.0184V59.0559ZM100.731 54.4449C100.731 52.9464 100.155 51.4478 98.5412 51.4478C96.985 51.4478 96.0051 53.004 96.0051 54.4449H100.731ZM109.55 51.9089C108.973 51.6207 108.282 51.4478 107.705 51.4478C105.631 51.4478 104.42 52.9464 104.42 55.0213C104.42 56.9809 105.573 58.6524 107.59 58.6524C108.224 58.6524 108.858 58.4795 109.492 58.249L109.607 59.2288C108.903 59.4718 108.162 59.5889 107.417 59.5746C104.651 59.5746 103.267 57.442 103.267 55.0213C103.267 52.4276 104.996 50.5256 107.533 50.5256C108.57 50.5256 109.262 50.7562 109.607 50.8714L109.55 51.9089ZM118.08 57.3268C118.08 57.9608 118.08 58.6524 118.195 59.3441H117.158V57.7879C116.754 58.5948 116.12 59.517 114.334 59.517C112.201 59.517 111.452 58.1337 111.452 56.2317V50.7562H112.489V55.9435C112.489 57.615 113.066 58.6524 114.507 58.6524C116.466 58.6524 117.043 56.9233 117.043 55.4824V50.7562H118.138V57.3268H118.08ZM120.789 52.6582L120.731 50.7562H121.769V52.4276H121.826C122.23 51.4478 122.979 50.5256 124.017 50.5256L124.766 50.6409V51.7936C124.535 51.6784 124.247 51.6784 124.017 51.6784C122.288 51.6784 121.884 53.5227 121.884 55.1366V59.3441H120.789V52.6582ZM127.475 48.4507H126.437V47.0098H127.475V48.4507ZM126.437 50.7562H127.475V59.4017H126.437V50.7562ZM133.873 51.6784H131.913V57.2115C131.913 58.0184 132.201 58.6524 133.066 58.6524C133.469 58.6524 133.757 58.5371 134.045 58.4219L134.103 59.3441C133.873 59.4017 133.354 59.5746 132.835 59.5746C130.933 59.5746 130.875 58.249 130.875 56.6928V51.6784H129.146V50.7562H130.875V48.6812L131.913 48.2778V50.7562H133.873V51.6784ZM136.87 48.4507H135.775V47.0098H136.87V48.4507ZM135.775 50.7562H136.87V59.4017H135.775V50.7562ZM145.285 59.0559C144.535 59.4017 143.556 59.5746 142.806 59.5746C139.924 59.5746 138.887 57.615 138.887 55.0213C138.887 52.4276 140.328 50.5256 142.518 50.5256C144.939 50.5256 145.976 52.4853 145.976 54.7907V55.3671H139.982C139.982 57.1539 140.962 58.6524 142.864 58.6524C143.613 58.6524 144.708 58.3066 145.227 58.0184V59.0559H145.285ZM144.766 54.4449C144.766 52.9464 144.19 51.4478 142.576 51.4478C141.02 51.4478 140.04 53.004 140.04 54.4449H144.766ZM147.302 58.076C147.936 58.4219 148.743 58.6524 149.55 58.6524C150.587 58.6524 151.452 58.076 151.452 57.0962C151.452 55.0789 147.302 55.3671 147.302 52.8887C147.302 51.1596 148.685 50.5833 150.126 50.5833C150.587 50.5833 151.509 50.6409 152.259 50.9291L152.086 51.9089C151.509 51.6784 150.76 51.5054 150.184 51.5054C149.089 51.5054 148.339 51.8513 148.339 52.9464C148.339 54.5602 152.547 54.3296 152.547 57.1539C152.547 58.9982 150.818 59.6322 149.55 59.6322C148.743 59.6322 147.878 59.517 147.129 59.2288L147.244 58.1337L147.302 58.076Z" fill="#003974"/>
<path d="M116.177 42.2837C122.517 42.2837 127.358 38.595 127.358 32.2549C127.358 25.9149 122.517 22.1685 116.177 22.1685C109.837 22.1685 104.938 25.8572 104.938 32.2549C104.938 38.595 109.779 42.2837 116.177 42.2837ZM116.177 37.6728C113.064 37.6728 111.796 35.0791 111.796 32.2549C111.796 29.3731 113.064 26.837 116.177 26.837C119.231 26.837 120.499 29.3731 120.499 32.2549C120.499 35.1368 119.231 37.6728 116.177 37.6728Z" fill="#ED1D24"/>
<path d="M126.723 27.2407H130.527V35.0793C130.527 39.6902 131.968 42.2839 137.963 42.2839C139.576 42.2839 140.844 42.111 142.113 41.9381L141.882 37.6153C141.248 37.7306 140.499 37.9035 139.865 37.9035C137.732 37.9035 137.213 36.6931 137.213 34.3877V27.2407H141.824V22.6297H137.213V15.9438L130.643 18.2493V22.6297H126.723V27.2407ZM165.167 41.8804H171.796V32.3127H171.853L177.213 41.8804H185.283L178.02 31.4482L184.706 22.6297H177.386L171.853 30.6989H171.796V15.9438L165.167 18.2493V41.8804ZM87.2422 41.8804H93.8704V32.3127H93.9857L99.2883 41.8804H107.357L100.095 31.4482L106.781 22.6297H99.5188L93.9857 30.6989H93.8704V15.9438L87.2422 18.1917V41.8228V41.8804ZM162.804 41.9381C162.458 40.4395 162.401 38.8833 162.401 37.3271V30.1802C162.401 24.1859 158.078 22.111 153.179 22.111C150.297 22.111 147.761 22.5145 145.34 23.4366L145.455 28.0476C147.368 27.0238 149.511 26.5079 151.68 26.549C154.101 26.549 156.061 27.2983 156.118 29.9496C155.254 29.7767 154.043 29.6614 153.006 29.6614C149.375 29.6614 142.919 30.3531 142.919 36.3473C142.919 40.5548 146.378 42.4568 150.239 42.4568C153.006 42.4568 154.85 41.3617 156.406 38.9986C156.406 39.9784 156.579 40.9583 156.579 41.9957H162.804V41.9381ZM149.202 35.7709C149.202 33.9266 150.989 33.1773 153.236 33.1773L156.118 33.2926C156.118 35.598 154.504 37.9035 151.968 37.9035C150.412 37.9035 149.202 37.1542 149.202 35.7709Z" fill="#ED1D24"/>
<path d="M16.2344 37.327C16.2344 21.8227 30.8165 9.25781 48.7992 9.25781C66.8396 9.25781 81.4217 21.765 81.4217 37.2693C81.4217 52.716 66.8396 65.2809 48.7992 65.2809C30.8165 65.2809 16.2344 52.716 16.2344 37.2693" fill="#003974"/>
<path d="M44.8789 18.3646L52.3717 15.8862V56.8084L44.8789 59.3444V18.3646Z" fill="#ED1D24"/>
<path d="M73.296 40.2086C72.6043 46.0876 69.319 51.9665 62.172 51.9665C57.9646 51.9665 54.6792 49.0847 52.4314 45.6265V41.5919C55.3133 42.9752 57.9069 44.4738 61.1346 44.4738C65.1115 44.589 68.6274 43.0905 70.1259 40.2086H73.296ZM49.3767 43.8974C46.0337 47.8743 42.8637 51.9089 36.9271 51.9089C28.5121 51.9089 24.5352 43.7821 24.5352 36.9233C24.5352 30.4104 27.6475 22.687 35.832 22.687C39.4055 22.687 42.806 24.8772 44.881 27.1827V32.7158C43.1519 31.5631 39.3478 30.4104 36.8118 30.4104C31.6245 30.2951 27.0135 32.6006 27.1288 37.7302C27.1865 41.1885 30.7023 43.6092 34.1605 43.6092C39.5207 43.6092 42.7484 38.7677 45.4573 35.0789L48.6274 30.8138C51.6245 26.6063 55.1403 22.7446 61.0769 22.7446C68.1086 22.7446 72.0279 28.4507 73.1807 34.272H69.953C69.2615 33.3124 68.3527 32.5301 67.3008 31.9891C66.249 31.4482 65.084 31.1639 63.9012 31.1596C58.368 31.1596 55.0827 36.2317 52.3738 39.9781L49.319 43.8398" fill="white"/>
</svg>
