<svg width="245" height="63" viewBox="0 0 245 63" fill="none" xmlns="http://www.w3.org/2000/svg">
<g clip-path="url(#clip0_2451_17478)">
<mask id="mask0_2451_17478" style="mask-type:luminance" maskUnits="userSpaceOnUse" x="-1" y="-1" width="246" height="65">
<path d="M-0.132812 -0.106445H244.208V63.106H-0.132812V-0.106445Z" fill="white"/>
</mask>
<g mask="url(#mask0_2451_17478)">
<path fill-rule="evenodd" clip-rule="evenodd" d="M240.144 29.2184C240.051 26.9272 238.204 24.9095 235.433 24.9095C232.385 24.9095 230.629 26.8348 230.353 29.2173H240.144V29.2184ZM235.526 21.427C240.513 21.427 244.209 25.093 244.209 30.1349C244.209 30.5032 244.209 31.1426 244.116 31.4185C244.116 31.8756 243.654 32.2438 243.285 32.2438H230.075C230.075 34.8109 232.478 37.3769 235.803 37.3769C238.019 37.3769 239.313 36.5527 240.513 35.8198C240.884 35.5439 241.254 35.4515 241.623 35.9109L242.729 37.6539C243.1 38.0186 243.193 38.3845 242.638 38.9363C241.252 40.1287 238.758 41.3199 235.526 41.3199C229.705 41.3199 226.011 36.8286 226.011 31.4185C226.011 26.0107 229.707 21.427 235.526 21.427ZM209.663 39.3934C209.387 39.211 209.107 38.844 209.294 38.3845L210.125 36.6439C210.309 36.278 210.864 36.0956 211.324 36.3704C212.435 37.011 213.818 37.7439 216.034 37.7439C217.605 37.7439 218.529 37.0086 218.529 35.9109C218.529 34.6285 217.051 33.8032 214.466 32.6109C211.508 31.3261 209.294 29.7702 209.294 26.6525C209.294 24.2677 210.954 21.5171 215.574 21.5171C218.252 21.5171 220.192 22.3424 221.115 22.893C221.578 23.2589 221.764 23.8095 221.484 24.2677L220.839 25.5501C220.562 26.1007 220.007 26.1007 219.638 25.9183C218.345 25.3677 217.051 25.003 215.574 25.003C213.912 25.003 213.173 25.826 213.173 26.6525C213.173 27.8425 214.556 28.5755 216.406 29.4031C219.914 30.8679 222.595 32.1514 222.595 35.6351C222.595 38.5692 220.007 41.1364 215.758 41.1364C212.895 41.3199 210.771 40.1287 209.661 39.3934H209.663ZM196.267 37.9263C198.209 37.9263 200.149 36.5527 200.703 35.6362V32.5185C200.425 32.335 198.945 31.8756 197.193 31.8756C194.974 31.8756 193.219 33.0703 193.219 34.9933C193.312 36.6439 194.33 37.9263 196.267 37.9263ZM196.916 28.8514C198.854 28.8514 200.794 29.4008 200.794 29.4008C200.887 26.3766 200.149 25.0954 197.746 25.0954C195.529 25.0954 193.405 25.736 192.39 26.0107C191.835 26.1007 191.465 25.736 191.281 25.1854L190.91 23.6271C190.82 22.9853 191.097 22.7106 191.558 22.5247C191.926 22.4347 194.607 21.427 198.116 21.427C204.212 21.427 204.767 25.093 204.767 29.7679V39.8516C204.734 40.3438 204.338 40.7366 203.842 40.7693H202.457C202.086 40.7693 201.902 40.5869 201.716 40.1287L201.257 38.844C199.689 40.3964 197.558 41.2556 195.345 41.2264C191.742 41.2264 189.155 38.844 189.155 34.9033C189.248 31.5108 192.02 28.8537 196.916 28.8537V28.8514ZM178.995 21.427C181.953 21.427 184.168 22.5247 185.923 24.7248C186.293 25.1854 186.198 25.7336 185.74 26.1007L184.261 27.4778C183.707 27.9349 183.337 27.5678 183.059 27.2931C182.23 26.3766 180.658 25.3677 179.088 25.3677C175.856 25.3677 173.267 28.0272 173.267 31.3261C173.267 34.7186 175.763 37.3769 178.904 37.3769C181.398 37.3769 182.413 36.0033 183.43 34.9933C183.797 34.6262 184.261 34.6262 184.721 34.9009L186.016 35.9109C186.477 36.278 186.662 36.7363 186.384 37.2857C184.814 39.6681 182.23 41.2264 178.904 41.2264C173.546 41.2264 169.112 37.011 169.112 31.3261C169.205 25.826 173.73 21.427 178.997 21.427H178.995ZM160.338 12.9915C160.338 12.5345 160.706 12.0762 161.26 12.0762H163.57C164.064 12.1101 164.458 12.5006 164.492 12.9915V39.9463C164.458 40.4373 164.064 40.8278 163.57 40.8617H161.262C160.752 40.8617 160.338 40.4502 160.338 39.944V12.9915ZM150.176 12.9915C150.176 12.5345 150.546 12.0762 151.1 12.0762H153.409C153.904 12.1101 154.297 12.5006 154.332 12.9915V39.9463C154.297 40.4373 153.904 40.8278 153.409 40.8617H151.102C150.592 40.8617 150.176 40.4502 150.176 39.944V12.9915ZM135.952 37.9263C137.891 37.9263 139.83 36.5527 140.384 35.6362V32.5185C140.109 32.335 138.629 31.8756 136.874 31.8756C134.658 31.8756 132.904 33.0703 132.904 34.9933C132.904 36.6439 133.919 37.9263 135.952 37.9263ZM136.507 28.8514C138.446 28.8514 140.384 29.4008 140.384 29.4008C140.477 26.3766 139.739 25.0954 137.336 25.0954C135.121 25.0954 132.997 25.736 131.982 26.0107C131.426 26.1007 131.056 25.736 130.872 25.1854L130.501 23.6271C130.41 22.9853 130.685 22.7106 131.149 22.5247C131.517 22.4347 134.197 21.427 137.706 21.427C143.803 21.427 144.449 25.093 144.449 29.7679V39.8516C144.415 40.3438 144.022 40.7354 143.526 40.7693H142.139C141.771 40.7693 141.587 40.5869 141.31 40.1287L140.846 38.844C139.278 40.3964 137.149 41.2544 134.937 41.2264C131.332 41.2264 128.747 38.844 128.747 34.9033C128.84 31.5108 131.61 28.8537 136.507 28.8537V28.8514ZM95.8644 22.8006C95.8644 22.3424 96.2319 21.8853 96.7867 21.8853H97.7101C98.1719 21.8853 98.451 22.0677 98.5417 22.4347L99.0965 24.0842C99.464 23.6271 101.497 21.427 105.193 21.427C107.964 21.427 109.625 22.5247 111.012 24.4524C111.567 23.9018 113.783 21.427 117.476 21.427C123.298 21.427 124.775 25.4601 124.775 30.4108V39.944C124.775 40.4502 124.361 40.8617 123.851 40.8617H121.543C120.988 40.8617 120.617 40.4946 120.617 39.944V30.2273C120.617 27.2019 119.418 25.3677 116.832 25.3677C113.967 25.3677 112.582 27.2931 112.212 27.5678C112.305 27.9349 112.396 29.1261 112.396 30.1349V39.9463C112.396 40.4011 112.027 40.8617 111.567 40.8617H109.164C108.609 40.8617 108.241 40.4946 108.241 39.944V30.2273C108.241 27.1095 107.132 25.3677 104.452 25.3677C101.59 25.3677 100.112 27.4778 99.9281 28.1207V39.944C99.8951 40.4361 99.4993 40.8289 99.0034 40.8617H96.696C96.1848 40.8617 95.7714 40.4502 95.7714 39.944V22.8006H95.8644ZM78.4048 39.3934C78.1292 39.211 77.85 38.844 78.0361 38.3845L78.8665 36.6439C79.0526 36.278 79.6074 36.0956 80.0691 36.3704C81.1752 37.011 82.5627 37.7439 84.7783 37.7439C86.3495 37.7439 87.2718 37.0086 87.2718 35.9109C87.2718 34.6285 85.7948 33.8032 83.2082 32.6109C80.2529 31.3261 78.0361 29.7702 78.0361 26.6525C78.0361 24.2677 79.6981 21.5171 84.3165 21.5171C86.995 21.5171 88.9362 22.3424 89.8584 22.893C90.3202 23.2589 90.5063 23.8095 90.2295 24.2677L89.5816 25.5501C89.306 26.1007 88.7524 26.1007 88.3814 25.9183C87.0904 25.3677 85.7948 25.003 84.3165 25.003C82.6557 25.003 81.9149 25.826 81.9149 26.6525C81.9149 27.8425 83.3012 28.5755 85.1493 29.4031C88.6594 30.8679 91.3367 32.1514 91.3367 35.6351C91.3367 38.5692 88.7524 41.1364 84.5003 41.1364C81.6392 41.3199 79.5144 40.1287 78.4048 39.3934ZM27.4112 8.35062L38.0332 13.4732C38.5586 13.7268 38.7788 14.3546 38.522 14.876C38.4219 15.0817 38.2582 15.2501 38.0521 15.3541L27.7481 20.5889C27.443 20.7385 27.0849 20.7385 26.7798 20.5889L16.159 15.4687C15.6336 15.215 15.4134 14.5861 15.669 14.0647C15.7691 13.8589 15.934 13.6929 16.1389 13.5889L26.443 8.35296C26.748 8.20216 27.1061 8.20099 27.4112 8.35062ZM27.4877 27.8051L52.6294 15.0315C53.1477 14.7661 53.3526 14.1337 53.0841 13.617C52.9804 13.4147 52.8132 13.2534 52.607 13.154L27.6821 1.13556C27.3782 0.984761 27.0213 0.984761 26.7174 1.13556L1.57573 13.9034C1.05629 14.1687 0.85016 14.8012 1.11636 15.3167C1.22119 15.5201 1.38963 15.6849 1.59693 15.7843L26.5325 27.8004C26.8328 27.9477 27.1862 27.9477 27.4877 27.8004V27.8051ZM48.6141 37.0086C48.4244 41.3678 46.0369 45.3389 42.263 47.574C38.7635 49.3591 35.9248 47.5296 35.9272 43.4767C36.1145 39.1187 38.502 35.1452 42.2783 32.9101C45.7766 31.1251 48.6141 32.9627 48.6141 37.0063V37.0086ZM56.0347 47.975V19.5648C56.0299 18.978 55.547 18.5057 54.9557 18.5104C54.7861 18.5116 54.6189 18.5525 54.4681 18.6296L29.1026 31.581C28.7481 31.7587 28.5254 32.1187 28.5243 32.5127V60.9228C28.529 61.5097 29.0119 61.982 29.6032 61.9773C29.7728 61.9761 29.9401 61.9352 30.0908 61.858L55.4646 48.9079C55.8156 48.7267 56.0347 48.3678 56.0347 47.975ZM16.8092 50.4697L5.39204 44.9859C4.86553 44.7334 4.64409 44.1068 4.89615 43.5842C4.91853 43.541 4.94209 43.4989 4.96918 43.4592L10.6842 35.0552C11.0187 34.5666 11.6889 34.4392 12.1813 34.7712C12.3544 34.8881 12.4899 35.0517 12.57 35.2434L18.2862 49.1218C18.5218 49.6525 18.2791 50.2733 17.7444 50.5071C17.4428 50.6392 17.0966 50.624 16.8092 50.4673V50.4697Z" fill="#1F7CE0"/>
</g>
</g>
<defs>
<clipPath id="clip0_2451_17478">
<rect width="244" height="61.9482" fill="white" transform="translate(0.5 0.525879)"/>
</clipPath>
</defs>
</svg>
