<svg width="201" height="27" viewBox="0 0 201 27" fill="none" xmlns="http://www.w3.org/2000/svg">
<path fill-rule="evenodd" clip-rule="evenodd" d="M22.2562 7.42448C23.7025 9.29661 24.9019 11.3996 25.8313 13.6671V1.67432H15.6306C18.0845 2.99792 20.3324 4.93432 22.2562 7.42448ZM7.55048 2.95202C5.66082 2.95202 3.84309 3.3553 2.14062 4.10153V25.3261H24.7886C24.6132 12.9478 16.9479 2.95202 7.55048 2.95202Z" fill="#387ED1"/>
<path d="M39.3672 21.6699L52.0217 6.37482H39.7649V3.04039H56.9242V5.824L44.2696 21.1194H56.9242V24.4535H39.3672V21.6699ZM61.6424 3.04039H77.5146V6.4358H65.3807V11.942H76.1363V15.3378H65.3807V21.0578H77.6674V24.4532H61.6424V3.04039ZM82.1718 3.04039H91.7317C93.0798 3.04039 94.2749 3.22925 95.3169 3.60629C96.359 3.98334 97.2263 4.50859 97.9212 5.1817C98.493 5.77351 98.9327 6.45646 99.2391 7.23121C99.5455 8.00597 99.6982 8.86301 99.6982 9.80072V9.86203C99.6982 10.7391 99.5708 11.5292 99.3156 12.2329C99.0605 12.9365 98.7071 13.5588 98.2582 14.0988C97.8092 14.6388 97.2726 15.0984 96.6496 15.4751C96.0266 15.8519 95.337 16.1433 94.5816 16.3469L100.372 24.4535H95.9294L90.6431 16.9896H90.582H85.9097V24.4535H82.1715L82.1718 3.04039ZM91.4431 13.6551C92.7944 13.6551 93.871 13.3332 94.6693 12.6876C95.4677 12.042 95.8687 11.1666 95.8687 10.0607V9.99941C95.8687 8.8322 95.4785 7.94597 94.6999 7.3417C93.9212 6.73744 92.825 6.43547 91.4112 6.43547H85.9097V13.6548L91.4431 13.6551ZM114.559 24.8207C112.904 24.8207 111.393 24.5302 110.025 23.9492C108.657 23.3683 107.482 22.5781 106.501 21.5781C105.521 20.5781 104.755 19.4119 104.204 18.0758C103.653 16.7397 103.376 15.3174 103.376 13.8083V13.7469C103.376 12.2378 103.652 10.8155 104.204 9.47941C104.756 8.14334 105.531 6.97088 106.532 5.96138C107.533 4.95187 108.717 4.15154 110.087 3.56006C111.456 2.96859 112.966 2.67285 114.621 2.67285C116.276 2.67285 117.787 2.96334 119.156 3.54465C120.525 4.12597 121.699 4.91646 122.68 5.91547C123.66 6.91449 124.426 8.08236 124.977 9.4181C125.529 10.7538 125.805 12.1765 125.805 13.6853V13.7466C125.805 15.2561 125.529 16.6788 124.977 18.0138C124.425 19.3489 123.65 20.5224 122.649 21.5319C121.648 22.5414 120.463 23.342 119.094 23.9332C117.725 24.5243 116.214 24.8207 114.559 24.8207ZM114.621 21.364C115.679 21.364 116.65 21.1653 117.534 20.7676C118.418 20.3699 119.177 19.8299 119.807 19.1466C120.438 18.4633 120.931 17.6627 121.287 16.745C121.643 15.8273 121.821 14.8483 121.821 13.8086V13.7473C121.821 12.7073 121.643 11.7233 121.287 10.7951C120.931 9.86695 120.432 9.06203 119.792 8.37875C119.152 7.69547 118.383 7.15023 117.488 6.74203C116.592 6.33384 115.617 6.13023 114.559 6.13023C113.501 6.13023 112.53 6.32892 111.646 6.72662C110.761 7.12433 110.003 7.66498 109.372 8.34793C108.742 9.03088 108.249 9.83154 107.892 10.7492C107.535 11.6669 107.358 12.646 107.358 13.686V13.7473C107.358 14.7873 107.536 15.7712 107.892 16.6988C108.248 17.6263 108.747 18.4329 109.388 19.1158C110.029 19.7988 110.796 20.3447 111.691 20.7522C112.586 21.1597 113.563 21.364 114.621 21.364ZM130.369 3.04039H138.368C140.042 3.04039 141.579 3.31088 142.979 3.85121C144.38 4.39154 145.583 5.14105 146.594 6.09941C147.606 7.05777 148.387 8.18498 148.939 9.48006C149.491 10.7751 149.767 12.1774 149.767 13.6863V13.7476C149.767 15.2571 149.491 16.6643 148.939 17.9689C148.387 19.2735 147.606 20.4066 146.594 21.3643C145.583 22.322 144.378 23.0778 142.979 23.6279C141.58 24.1781 140.042 24.4538 138.368 24.4538H130.369V3.04039ZM138.337 21.0581C139.46 21.0581 140.481 20.8794 141.401 20.5207C142.32 20.162 143.102 19.661 143.745 19.0161C144.387 18.3712 144.888 17.6024 145.246 16.7112C145.604 15.8201 145.783 14.8532 145.783 13.8083V13.7469C145.783 12.7024 145.603 11.7299 145.246 10.8289C144.889 9.92793 144.388 9.15482 143.745 8.50957C143.101 7.86433 142.32 7.35744 141.401 6.98859C140.481 6.61974 139.46 6.43547 138.337 6.43547H134.108V21.0578L138.337 21.0581ZM154.331 3.04039H158.069V11.9424H168.366V3.04039H172.104V24.4538H168.366V15.4296H158.069V24.4535H154.331V3.04039ZM185.217 2.88728H188.711L198.148 24.4535H194.165L191.989 19.2837H181.847L179.64 24.4535H175.779L185.217 2.88728ZM190.611 15.9499L186.902 7.38433L183.225 15.9499H190.611Z" fill="#387ED1"/>
</svg>
