<svg width="75" height="75" viewBox="0 0 75 75" fill="none" xmlns="http://www.w3.org/2000/svg">
<path d="M37.5 55.0781C50.8325 55.0781 61.6406 44.27 61.6406 30.9375C61.6406 17.605 50.8325 6.79688 37.5 6.79688C24.1675 6.79688 13.3594 17.605 13.3594 30.9375C13.3594 44.27 24.1675 55.0781 37.5 55.0781Z" stroke="#0C4ADA" stroke-width="2" stroke-miterlimit="10" stroke-linecap="round" stroke-linejoin="round"/>
<path d="M47.8125 60.4687L53.9063 67.9688L57.8906 57.8906L67.9688 53.9062L58.8281 42.1875" stroke="#0C4ADA" stroke-width="2" stroke-miterlimit="10" stroke-linecap="round" stroke-linejoin="round"/>
<path d="M32.1094 54.375L21.0938 67.9688L17.1094 57.8906L7.03125 53.9062L16.1719 42.1875" stroke="#0C4ADA" stroke-width="2" stroke-miterlimit="10" stroke-linecap="round" stroke-linejoin="round"/>
<path d="M37.4992 38.6719L43.1242 41.4844C44.2961 41.9531 45.4679 41.25 45.2336 39.8438L44.0617 33.5156L48.5148 29.0625C49.4523 28.125 48.9836 26.7188 47.5773 26.4844L41.7179 25.0781L38.9054 19.6875C38.4367 18.5156 36.7961 18.5156 36.3273 19.6875L33.5148 25.3125L26.9523 26.4844C25.5461 26.7188 25.3117 28.125 26.0148 29.0625L30.4679 33.5156L29.2961 39.6094C29.0617 41.0156 30.4679 41.7188 31.4054 41.25L37.4992 38.6719Z" stroke="#20BFFC" stroke-width="2" stroke-miterlimit="10" stroke-linecap="round" stroke-linejoin="round"/>
</svg>
