<svg width="75" height="75" viewBox="0 0 75 75" fill="none" xmlns="http://www.w3.org/2000/svg">
<path d="M11.7188 45.7031V63.2812C11.7188 65.8594 13.8281 67.9688 16.4062 67.9688H58.5938C61.1719 67.9688 63.2812 65.8594 63.2812 63.2812V45.7031" stroke="#0C4ADA" stroke-width="4" stroke-miterlimit="10" stroke-linecap="round" stroke-linejoin="round"/>
<path d="M46.875 6.5625C43.8281 5.85937 40.7812 5.39062 37.5 5.39062C34.2188 5.39062 31.1719 5.85937 28.125 6.5625V16.4062H46.875V6.5625Z" stroke="#0C4ADA" stroke-width="4" stroke-miterlimit="10" stroke-linecap="round" stroke-linejoin="round"/>
<path d="M37.5 53.9062C34.9219 53.9062 32.8125 51.7969 32.8125 49.2188V42.1875H42.1875V49.2188C42.1875 51.7969 40.0781 53.9062 37.5 53.9062Z" stroke="#20BFFC" stroke-width="4" stroke-miterlimit="10" stroke-linecap="round" stroke-linejoin="round"/>
<path d="M49.2188 47.8125C54.375 47.3437 59.2969 46.6406 64.4531 45.4687C66.5625 45 67.9688 43.125 67.9688 40.7812V16.4062H7.03125V40.7812C7.03125 42.8906 8.4375 44.7656 10.5469 45.4687C15.7031 46.6406 20.625 47.3437 25.7812 47.8125" stroke="#0C4ADA" stroke-width="4" stroke-miterlimit="10" stroke-linecap="round" stroke-linejoin="round"/>
</svg>
