<svg width="105" height="16" viewBox="0 0 105 16" fill="none" xmlns="http://www.w3.org/2000/svg">
<g clip-path="url(#clip0_8113_781)">
<path d="M22 0H2C0.89543 0 0 0.89543 0 2V14C0 15.1046 0.89543 16 2 16H22C23.1046 16 24 15.1046 24 14V2C24 0.89543 23.1046 0 22 0Z" fill="#252525"/>
<path d="M9 13C11.7614 13 14 10.7614 14 8C14 5.23858 11.7614 3 9 3C6.23858 3 4 5.23858 4 8C4 10.7614 6.23858 13 9 13Z" fill="#EB001B"/>
<path d="M15 13C17.7614 13 20 10.7614 20 8C20 5.23858 17.7614 3 15 3C12.2386 3 10 5.23858 10 8C10 10.7614 12.2386 13 15 13Z" fill="#F79E1B"/>
<path fill-rule="evenodd" clip-rule="evenodd" d="M12 3.99951C13.2144 4.91172 14 6.36406 14 7.99988C14 9.6357 13.2144 11.088 12 12.0002C10.7856 11.088 10 9.6357 10 7.99988C10 6.36406 10.7856 4.91172 12 3.99951Z" fill="#FF5F00"/>
</g>
<g clip-path="url(#clip1_8113_781)">
<path d="M48.75 0.25H29.25C28.1454 0.25 27.25 1.14543 27.25 2.25V13.75C27.25 14.8546 28.1454 15.75 29.25 15.75H48.75C49.8546 15.75 50.75 14.8546 50.75 13.75V2.25C50.75 1.14543 49.8546 0.25 48.75 0.25Z" fill="white" stroke="black" stroke-opacity="0.2" stroke-width="0.5"/>
<path d="M29.7877 5.91444C29.2646 5.62751 28.6675 5.39674 28 5.23659L28.028 5.11188H30.765C31.136 5.12489 31.437 5.23651 31.5349 5.63071L32.1298 8.46659L32.312 9.32073L33.978 5.11188H35.7768L33.1029 11.2775H31.304L29.7877 5.91444ZM37.1 11.2841H35.3988L36.4628 5.11188H38.1639L37.1 11.2841ZM43.2668 5.26277L43.0354 6.59559L42.8816 6.53004C42.5737 6.40525 42.1674 6.28054 41.6144 6.29371C40.9427 6.29371 40.6415 6.56277 40.6345 6.82546C40.6345 7.11441 40.9989 7.30484 41.5939 7.58725C42.574 8.02719 43.0286 8.56557 43.0218 9.26819C43.0081 10.5486 41.846 11.3761 40.0611 11.3761C39.2979 11.3694 38.5628 11.2181 38.1638 11.0476L38.4019 9.66205L38.6259 9.76066C39.1789 9.99071 39.5428 10.089 40.222 10.089C40.7118 10.089 41.2369 9.89838 41.2436 9.48488C41.2436 9.21565 41.0199 9.01851 40.3617 8.71646C39.7178 8.42087 38.8568 7.92848 38.8708 7.04198C38.8781 5.84042 40.0611 5 41.741 5C42.399 5 42.9312 5.13789 43.2668 5.26277ZM45.5278 9.09749H46.9417C46.8718 8.78889 46.5496 7.31147 46.5496 7.31147L46.4307 6.77964C46.3467 7.00943 46.1999 7.38373 46.2069 7.37056C46.2069 7.37056 45.6678 8.7429 45.5278 9.09749ZM47.6276 5.11188L49 11.284H47.4249C47.4249 11.284 47.2708 10.5748 47.2219 10.3581H45.0378C44.9746 10.5222 44.6808 11.284 44.6808 11.284H42.8958L45.4226 5.62399C45.5977 5.22342 45.906 5.11188 46.3118 5.11188H47.6276Z" fill="#1434CB"/>
</g>
<g clip-path="url(#clip2_8113_781)">
<path d="M76 0H56C54.8954 0 54 0.89543 54 2V14C54 15.1046 54.8954 16 56 16H76C77.1046 16 78 15.1046 78 14V2C78 0.89543 77.1046 0 76 0Z" fill="#016FD0"/>
<path fill-rule="evenodd" clip-rule="evenodd" d="M67.7656 13.3938V7.69238L77.9132 7.70149V9.27638L76.7403 10.5298L77.9132 11.7947V13.403H76.0405L75.0454 12.3048L74.0572 13.4071L67.7656 13.3938Z" fill="#FFFFFE"/>
<path fill-rule="evenodd" clip-rule="evenodd" d="M68.4453 12.7687V8.31982H72.2176V9.34471H69.6667V10.0404H72.1568V11.0482H69.6667V11.7315H72.2176V12.7687H68.4453Z" fill="#016FD0"/>
<path fill-rule="evenodd" clip-rule="evenodd" d="M72.1954 12.7686L74.2827 10.5416L72.1953 8.31982H73.811L75.0865 9.72986L76.3656 8.31982H77.9117V8.35483L75.8689 10.5416L77.9117 12.7055V12.7686H76.35L75.0519 11.3444L73.7671 12.7686H72.1954Z" fill="#016FD0"/>
<path fill-rule="evenodd" clip-rule="evenodd" d="M68.2388 2.63184H70.6849L71.544 4.58269V2.63184H74.5639L75.0846 4.09341L75.6071 2.63184H77.9131V8.33323H65.7266L68.2388 2.63184Z" fill="#FFFFFE"/>
<path fill-rule="evenodd" clip-rule="evenodd" d="M68.7006 3.25098L66.7266 7.69615H68.0805L68.4529 6.80598H70.4708L70.843 7.69615H72.2306L70.2648 3.25098H68.7006ZM68.8702 5.80841L69.4622 4.39334L70.0538 5.80841H68.8702Z" fill="#016FD0"/>
<path fill-rule="evenodd" clip-rule="evenodd" d="M72.2109 7.69557V3.25049L74.1141 3.25703L75.0933 5.98976L76.079 3.25049H77.9106V7.69557L76.732 7.706V4.65265L75.6194 7.69557H74.5436L73.4079 4.64222V7.69557H72.2109Z" fill="#016FD0"/>
</g>
<g clip-path="url(#clip3_8113_781)">
<path d="M102.997 15.7499L102.999 15.7499C103.954 15.7581 104.738 14.9773 104.75 14.0042L104.75 2.0063C104.746 1.53569 104.559 1.08617 104.23 0.756802C103.901 0.428269 103.459 0.246149 102.997 0.250071L83.0006 0.250062C82.5411 0.246149 82.0986 0.428269 81.7703 0.756802C81.4411 1.08617 81.2538 1.53569 81.25 2.00426L81.25 13.9937C81.2538 14.4643 81.4411 14.9138 81.7703 15.2432C82.0986 15.5717 82.5411 15.7538 83.0028 15.7499H102.997ZM102.996 16.2499C102.996 16.2499 102.995 16.2499 102.995 16.2499L102.997 16.2499H102.996Z" fill="white" stroke="black" stroke-opacity="0.2" stroke-width="0.5"/>
<path d="M93.6094 16.0002H102.994C103.521 16.0046 104.028 15.7995 104.404 15.4301C104.779 15.0607 104.993 14.5573 104.997 14.0305V11.6719C101.453 13.7062 97.6098 15.167 93.6094 16.0002Z" fill="#F27712"/>
<path d="M104.173 9.29643H103.321L102.361 8.03023H102.27V9.29643H101.574V6.15161H102.601C103.403 6.15161 103.867 6.48264 103.867 7.0785C103.867 7.56678 103.577 7.88126 103.056 7.98057L104.173 9.29643ZM103.147 7.10333C103.147 6.79712 102.915 6.63988 102.485 6.63988H102.27V7.59161H102.468C102.915 7.59161 103.147 7.42609 103.147 7.10333ZM99.1412 6.15161H101.111V6.68126H99.8364V7.38471H101.061V7.92264H99.8364V8.77505H101.111V9.30471H99.1412V6.15161ZM96.9067 9.37919L95.4005 6.14333H96.1619L97.1136 8.26195L98.0736 6.14333H98.8185L97.2957 9.37919H96.9233H96.9067ZM90.6088 9.37092C89.5495 9.37092 88.7219 8.65092 88.7219 7.71574C88.7219 6.8054 89.5661 6.06885 90.6254 6.06885C90.9233 6.06885 91.1716 6.12678 91.4778 6.25919V6.98747C91.2459 6.75965 90.9339 6.63187 90.6088 6.63161C89.9467 6.63161 89.4419 7.11161 89.4419 7.71574C89.4419 8.35299 89.9385 8.80816 90.6419 8.80816C90.9564 8.80816 91.1964 8.70885 91.4778 8.46057V9.18885C91.1633 9.32126 90.8985 9.37092 90.6088 9.37092ZM88.5067 8.33643C88.5067 8.94885 88.0019 9.37092 87.2736 9.37092C86.744 9.37092 86.3633 9.18885 86.0405 8.77505L86.4957 8.38609C86.653 8.66747 86.9178 8.80816 87.2488 8.80816C87.5633 8.80816 87.7867 8.61781 87.7867 8.36954C87.7867 8.22885 87.7205 8.12126 87.5798 8.0385C87.4256 7.96365 87.265 7.90271 87.0998 7.85643C86.4461 7.64954 86.2226 7.42609 86.2226 6.98747C86.2226 6.47436 86.7026 6.0854 87.3316 6.0854C87.7288 6.0854 88.0847 6.20954 88.3826 6.44126L88.0185 6.85505C87.8741 6.69683 87.6699 6.60671 87.4557 6.60678C87.1578 6.60678 86.9426 6.75574 86.9426 6.95436C86.9426 7.11988 87.0667 7.21092 87.4805 7.35161C88.275 7.59988 88.5067 7.83161 88.5067 8.34471V8.33643ZM85.0888 6.15161H85.784V9.30471H85.0888V6.15161ZM82.8543 9.30471H81.8281V6.15161H82.8543C83.9798 6.15161 84.7578 6.79712 84.7578 7.72402C84.7578 8.19574 84.5261 8.64264 84.1205 8.94057C83.773 9.18885 83.384 9.30471 82.8461 9.30471H82.8543ZM83.6654 6.93781C83.4336 6.75574 83.1688 6.68954 82.7136 6.68954H82.5233V8.77505H82.7136C83.1605 8.77505 83.4419 8.6923 83.6654 8.52678C83.9054 8.32816 84.0461 8.03023 84.0461 7.72402C84.0461 7.41781 83.9054 7.12816 83.6654 6.93781Z" fill="black"/>
<path d="M93.413 6.06885C92.5026 6.06885 91.7578 6.79712 91.7578 7.69919C91.7578 8.65919 92.4695 9.37919 93.413 9.37919C94.3399 9.37919 95.0682 8.65092 95.0682 7.72402C95.0682 6.79712 94.3482 6.06885 93.413 6.06885Z" fill="#F27712"/>
</g>
<defs>
<clipPath id="clip0_8113_781">
<rect width="24" height="16" fill="white"/>
</clipPath>
<clipPath id="clip1_8113_781">
<rect width="24" height="16" fill="white" transform="translate(27)"/>
</clipPath>
<clipPath id="clip2_8113_781">
<rect width="24" height="16" fill="white" transform="translate(54)"/>
</clipPath>
<clipPath id="clip3_8113_781">
<rect width="24" height="16" fill="white" transform="translate(81)"/>
</clipPath>
</defs>
</svg>
