<svg width="32" height="32" viewBox="0 0 32 32" fill="none" xmlns="http://www.w3.org/2000/svg">
<rect x="1" y="1" width="30" height="30" rx="15" stroke="#474747" stroke-width="2"/>
<g clip-path="url(#clip0_8042_3733)">
<path d="M16 4C9.4 4 4 9.4 4 16C4 22.6 9.4 28 16 28C22.6 28 28 22.6 28 16C28 9.4 22.6 4 16 4ZM14.5 21.4C14.35 21.55 14.05 21.7 13.75 21.7C13.45 21.7 13.15 21.55 13 21.4L7.9 16.3L9.55 14.65L13.75 19L22.6 10.45L24.1 12.1L14.5 21.4Z" fill="#474747"/>
</g>
<defs>
<clipPath id="clip0_8042_3733">
<rect width="24" height="24" fill="white" transform="translate(4 4)"/>
</clipPath>
</defs>
</svg>
