<svg width="32" height="32" viewBox="0 0 32 32" fill="none" xmlns="http://www.w3.org/2000/svg">
<path d="M2.70528 20.8134C2.88056 21.2955 2.63175 21.828 2.14972 22.0033C2.04499 22.0412 1.93804 22.059 1.83257 22.059C1.45303 22.059 1.09652 21.8243 0.959862 21.447C-1.52606 14.6005 0.93758 6.93626 6.95073 2.80965C12.8421 -1.23303 20.6749 -0.875035 26.1563 3.6378L26.0189 2.38184C25.9631 1.87233 26.3308 1.41332 26.8403 1.35761C27.3506 1.30191 27.8088 1.66956 27.8645 2.17907L28.2634 5.81994C28.3191 6.32945 27.9514 6.78846 27.4419 6.84416L23.8011 7.24375C23.7669 7.24747 23.7327 7.2497 23.6986 7.2497C23.2314 7.2497 22.8288 6.89764 22.7768 6.42229C22.7211 5.91278 23.0888 5.45377 23.5983 5.39807L25.161 5.2265C20.3087 1.09246 13.2751 0.721837 8.00095 4.34042C2.68523 7.98797 0.507539 14.7617 2.70454 20.8127L2.70528 20.8134ZM31.0405 10.5474C30.8652 10.0654 30.3326 9.81657 29.8506 9.99186C29.3686 10.1671 29.1197 10.6997 29.295 11.1817C31.492 17.2327 29.3143 24.0064 23.9986 27.654C18.7245 31.2733 11.6908 30.9027 6.83857 26.7679L8.40128 26.5963C8.91079 26.5406 9.27919 26.0816 9.22274 25.5721C9.16703 25.0626 8.70728 24.6942 8.19851 24.7507L4.55765 25.1502C4.04814 25.206 3.67974 25.665 3.73619 26.1745L4.13504 29.8153C4.18703 30.2907 4.58959 30.6427 5.05676 30.6427C5.09093 30.6427 5.12509 30.6413 5.15926 30.6368C5.66877 30.5811 6.03717 30.1221 5.98072 29.6126L5.84332 28.3566C8.77413 30.769 12.3756 31.9945 15.9942 31.9945C19.1441 31.9945 22.3074 31.0661 25.0488 29.1848C31.0627 25.0581 33.5264 17.3939 31.0397 10.5474H31.0405ZM26.2127 15.9976C26.2127 21.629 21.6315 26.2101 16.0002 26.2101C10.3688 26.2101 5.78761 21.629 5.78761 15.9976C5.78761 10.3662 10.3688 5.78503 16.0002 5.78503C21.6315 5.78503 26.2127 10.3662 26.2127 15.9976ZM24.3559 15.9976C24.3559 11.3904 20.6073 7.64186 16.0002 7.64186C11.393 7.64186 7.64444 11.3904 7.64444 15.9976C7.64444 20.6047 11.393 24.3533 16.0002 24.3533C20.6073 24.3533 24.3559 20.6047 24.3559 15.9976ZM16.1732 15.0855C15.9697 15.0469 14.9544 14.8218 14.9544 14.1719C14.9544 13.6773 15.4238 13.2747 16.0009 13.2747C16.4287 13.2747 16.8209 13.5057 16.9768 13.8496C17.1893 14.316 17.7396 14.5225 18.2061 14.3101C18.6725 14.0977 18.879 13.5473 18.6666 13.0809C18.3346 12.3508 17.6951 11.8093 16.9286 11.5642V10.7732C16.9286 10.2607 16.5126 9.8448 16.0002 9.8448C15.4877 9.8448 15.0717 10.2607 15.0717 10.7732V11.5635C13.925 11.9319 13.0968 12.962 13.0968 14.1727C13.0968 15.5423 14.1426 16.591 15.8271 16.9104C16.0306 16.949 17.0459 17.1741 17.0459 17.824C17.0459 18.3186 16.5765 18.7212 15.9994 18.7212C15.5716 18.7212 15.1794 18.4902 15.0235 18.147C14.811 17.6806 14.2607 17.4741 13.7942 17.6865C13.3278 17.899 13.1213 18.4493 13.3338 18.9158C13.6658 19.6459 14.3052 20.1873 15.0717 20.4324V21.2234C15.0717 21.7359 15.4877 22.1518 16.0002 22.1518C16.5126 22.1518 16.9286 21.7359 16.9286 21.2234V20.4332C18.0753 20.0648 18.9035 19.0353 18.9035 17.8247C18.9035 16.4551 17.8577 15.4056 16.1732 15.0862V15.0855Z" fill="#868686"/>
</svg>
