<svg width="32" height="37" viewBox="0 0 32 37" fill="none" xmlns="http://www.w3.org/2000/svg">
<path d="M4.29656 5.53453H9.14631C9.66795 5.53453 10.0913 5.11117 10.0913 4.58953C10.0913 4.06789 9.66795 3.64453 9.14631 3.64453H4.29656C3.77492 3.64453 3.35156 4.06789 3.35156 4.58953C3.35156 5.11117 3.77492 5.53453 4.29656 5.53453Z" fill="#868686"/>
<path d="M7.91025 8.37566C7.91025 7.85402 7.48689 7.43066 6.96525 7.43066H4.29656C3.77492 7.43066 3.35156 7.85402 3.35156 8.37566C3.35156 8.89731 3.77492 9.32067 4.29656 9.32067H6.96525C7.48689 9.32067 7.91025 8.89731 7.91025 8.37566Z" fill="#868686"/>
<path d="M28.787 0H21.1907C19.4194 0 17.9777 1.44169 17.9777 3.213V9.75317C17.9777 11.5245 19.4194 12.9662 21.1907 12.9662H24.0438V15.0391C24.0438 15.4776 23.8367 15.8987 23.4897 16.1663L21.2497 17.8945C19.7195 16.9579 17.9218 16.4166 16 16.4166C14.0782 16.4166 12.1867 16.9662 10.584 17.9913L8.21848 16.1663C7.87148 15.8987 7.66434 15.4768 7.66434 15.0391V12.9662H10.8093C12.5806 12.9662 14.0223 11.5245 14.0223 9.75317V3.213C14.0223 1.44169 12.5806 0 10.8093 0H3.213C1.44169 0 0 1.44169 0 3.213V9.75317C0 11.5245 1.44169 12.9662 3.213 12.9662H5.77433V15.0391C5.77433 16.059 6.25666 17.0395 7.06407 17.6632L9.05009 19.1956C8.9896 19.2531 8.92988 19.312 8.87016 19.371C6.96579 21.2754 5.91646 23.808 5.91646 26.5008C5.91646 32.0612 10.4396 36.5844 16 36.5844C18.6936 36.5844 21.2255 35.5358 23.1298 33.6307C25.0342 31.7256 26.0835 29.1937 26.0835 26.5008C26.0835 23.5661 24.8225 20.9201 22.8138 19.0754L24.6441 17.6632C25.4515 17.0403 25.9338 16.0597 25.9338 15.0391V12.9662H28.787C30.5583 12.9662 32 11.5245 32 9.75317V3.213C32 1.44169 30.5583 0 28.787 0ZM1.89 9.75317V3.213C1.89 2.48346 2.48346 1.89 3.213 1.89H10.8093C11.5388 1.89 12.1323 2.48346 12.1323 3.213V9.75317C12.1323 10.4827 11.5388 11.0762 10.8093 11.0762H3.213C2.48346 11.0762 1.89 10.4827 1.89 9.75317ZM24.1935 26.5008C24.1935 28.6895 23.3415 30.7473 21.794 32.2948C20.2465 33.8424 18.1886 34.6944 16 34.6944C11.4821 34.6944 7.80646 31.0187 7.80646 26.5008C7.80646 24.3122 8.65848 22.2544 10.206 20.7069C11.7535 19.1593 13.8114 18.3073 16 18.3073C17.7237 18.3073 19.3249 18.8433 20.6464 19.7558C20.7053 19.8102 20.7704 19.8564 20.8392 19.8934C22.872 21.3857 24.1935 23.7921 24.1935 26.5008ZM30.11 9.75317C30.11 10.4827 29.5165 11.0762 28.787 11.0762H21.1907C20.4612 11.0762 19.8677 10.4827 19.8677 9.75317V3.213C19.8677 2.48346 20.4612 1.89 21.1907 1.89H28.787C29.5165 1.89 30.11 2.48346 30.11 3.213V9.75317Z" fill="#868686"/>
<path d="M27.1229 3.64453H22.2731C21.7515 3.64453 21.3281 4.06789 21.3281 4.58953C21.3281 5.11117 21.7515 5.53453 22.2731 5.53453H27.1229C27.6445 5.53453 28.0679 5.11117 28.0679 4.58953C28.0679 4.06789 27.6445 3.64453 27.1229 3.64453Z" fill="#868686"/>
<path d="M24.9418 7.43066H22.2731C21.7515 7.43066 21.3281 7.85402 21.3281 8.37566C21.3281 8.89731 21.7515 9.32067 22.2731 9.32067H24.9418C25.4634 9.32067 25.8868 8.89731 25.8868 8.37566C25.8868 7.85402 25.4634 7.43066 24.9418 7.43066Z" fill="#868686"/>
<path d="M16.178 25.5723C15.9776 25.5345 14.9759 25.3123 14.9759 24.6788C14.9759 24.1949 15.4363 23.801 16.0018 23.801C16.4214 23.801 16.8062 24.0271 16.9597 24.3643C17.1759 24.839 17.7361 25.0492 18.2109 24.833C18.6856 24.6168 18.8958 24.0566 18.6796 23.5818C18.3477 22.8523 17.7112 22.3102 16.9468 22.0622V21.2858C16.9468 20.7642 16.5235 20.3408 16.0018 20.3408C15.4802 20.3408 15.0568 20.7642 15.0568 21.2858V22.0615C13.9115 22.4349 13.0859 23.4669 13.0859 24.6788C13.0859 26.0547 14.136 27.1085 15.8257 27.4291C16.026 27.4669 17.0277 27.6891 17.0277 28.3227C17.0277 28.8065 16.5673 29.1996 16.0018 29.1996C15.5823 29.1996 15.1974 28.9736 15.044 28.6372C14.8278 28.1624 14.2676 27.9522 13.7928 28.1685C13.318 28.3847 13.1079 28.9449 13.3241 29.4196C13.656 30.1484 14.2925 30.6905 15.0568 30.9392V31.7156C15.0568 32.2372 15.4802 32.6606 16.0018 32.6606C16.5235 32.6606 16.9468 32.2372 16.9468 31.7156V30.9399C18.0922 30.5665 18.9177 29.5345 18.9177 28.3227C18.9177 26.946 17.8676 25.8921 16.178 25.5716V25.5723Z" fill="#868686"/>
</svg>
