<svg width="75" height="75" viewBox="0 0 75 75" fill="none" xmlns="http://www.w3.org/2000/svg">
<path d="M14.5312 18.75H9.375C6.79687 18.75 4.6875 20.8594 4.6875 23.4375V63.2812C4.6875 65.8594 6.79687 67.9688 9.375 67.9688H65.625C68.2031 67.9688 70.3125 65.8594 70.3125 63.2812V23.4375C70.3125 20.8594 68.2031 18.75 65.625 18.75H61.4063" stroke="#0C4ADA" stroke-width="2" stroke-miterlimit="10" stroke-linecap="round" stroke-linejoin="round"/>
<path d="M59.7656 32.1094L37.5 45.7031L15.2344 32.1094" stroke="#0C4ADA" stroke-width="2" stroke-miterlimit="10" stroke-linecap="round" stroke-linejoin="round"/>
<path d="M37.5 23.2031C40.0888 23.2031 42.1875 21.1045 42.1875 18.5156C42.1875 15.9268 40.0888 13.8281 37.5 13.8281C34.9112 13.8281 32.8125 15.9268 32.8125 18.5156C32.8125 21.1045 34.9112 23.2031 37.5 23.2031Z" stroke="#20BFFC" stroke-width="2" stroke-miterlimit="10" stroke-linecap="round" stroke-linejoin="round"/>
<path d="M33.5147 31.875C25.3115 29.5312 20.1553 19.6875 25.7803 10.3125C26.7178 8.90625 27.8897 7.5 29.5303 6.79687C40.5459 0.468749 51.5615 8.20312 51.5615 18.5156V18.75C51.5615 22.2656 47.8115 24.8437 44.7647 23.4375C43.3584 22.5 42.1865 21.0937 42.1865 19.4531V13.125" stroke="#20BFFC" stroke-width="2" stroke-miterlimit="10" stroke-linecap="round" stroke-linejoin="round"/>
</svg>
