<svg width="36" height="36" viewBox="0 0 36 36" fill="none" xmlns="http://www.w3.org/2000/svg">
<path fill-rule="evenodd" clip-rule="evenodd" d="M33.75 9C33.75 6.92894 32.0711 5.25 30 5.25H9C6.92894 5.25 5.25 6.92894 5.25 9V12.9231C5.25 13.3373 5.58579 13.6731 6 13.6731C6.41421 13.6731 6.75 13.3373 6.75 12.9231V9C6.75 8.4312 6.96106 7.91169 7.30914 7.51553L16.6836 13.3917C18.3846 14.458 20.5448 14.4608 22.2486 13.399L31.6903 7.51504C32.0388 7.91127 32.25 8.43096 32.25 9V16.5C32.25 16.9142 32.5858 17.25 33 17.25C33.4142 17.25 33.75 16.9142 33.75 16.5V9ZM30.0797 6.75138L21.4552 12.126C20.2383 12.8844 18.6952 12.8824 17.4802 12.1208L8.91466 6.75159C8.94297 6.75054 8.97143 6.75 9 6.75H30C30.0267 6.75 30.0533 6.75046 30.0797 6.75138ZM33 20.25C32.5858 20.25 32.25 20.5858 32.25 21C32.25 22.2426 31.2426 23.25 30 23.25H22.5C22.0858 23.25 21.75 23.5858 21.75 24C21.75 24.4142 22.0858 24.75 22.5 24.75H30C32.0711 24.75 33.75 23.0711 33.75 21C33.75 20.5858 33.4142 20.25 33 20.25Z" fill="black"/>
<path fill-rule="evenodd" clip-rule="evenodd" d="M10.5 17.25C14.2279 17.25 17.25 20.272 17.25 24C17.25 27.728 14.2279 30.75 10.5 30.75C6.77208 30.75 3.75 27.728 3.75 24C3.75 20.272 6.77208 17.25 10.5 17.25ZM18.75 24C18.75 19.4436 15.0564 15.75 10.5 15.75C5.94365 15.75 2.25 19.4436 2.25 24C2.25 28.5564 5.94365 32.25 10.5 32.25C15.0564 32.25 18.75 28.5564 18.75 24Z" fill="black"/>
<path fill-rule="evenodd" clip-rule="evenodd" d="M9 20.25C9.41421 20.25 9.75 20.5859 9.75 21V24C9.75 24.4142 10.0858 24.75 10.5 24.75H13.5C13.9142 24.75 14.25 25.0858 14.25 25.5C14.25 25.9142 13.9142 26.25 13.5 26.25H10.5C9.25735 26.25 8.25 25.2426 8.25 24V21C8.25 20.5859 8.58579 20.25 9 20.25Z" fill="black"/>
</svg>
