<svg width="15" height="10" viewBox="0 0 15 10" fill="none" xmlns="http://www.w3.org/2000/svg">
<path d="M14.423 4.81363C13.8987 3.97794 13.2268 3.22418 12.4403 2.63428L10.1135 4.38759C10.1626 4.60061 10.1954 4.81363 10.1954 5.02665C10.1954 6.51778 8.98284 7.73035 7.4917 7.73035C7.00012 7.73035 6.54131 7.59926 6.14804 7.36986L4.55859 8.56604C5.47621 8.92653 6.45938 9.10678 7.4917 9.10678C10.4248 9.10678 12.9974 7.56649 14.4394 5.23967C14.5213 5.12496 14.5213 4.94472 14.423 4.81363Z" fill="#3B4652"/>
<path d="M12.9657 0.225405L10.9666 1.73293C9.9179 1.24134 8.7381 0.946393 7.49276 0.946393C4.55965 0.946393 2.00342 2.48668 0.561448 4.81351C0.479517 4.9446 0.479517 5.12484 0.561448 5.25593C1.18412 6.25548 2.01981 7.10756 2.98659 7.74662L1.29882 9.00835C1.21689 9.07389 1.20051 9.18859 1.26605 9.27052L1.61016 9.72933C1.6757 9.81126 1.7904 9.82765 1.87233 9.76211L13.5392 0.979165C13.6212 0.913621 13.6375 0.798918 13.572 0.716988L13.2279 0.274564C13.1623 0.192633 13.0476 0.176247 12.9657 0.225405ZM4.78906 5.02653C4.78906 3.53539 6.00163 2.32282 7.49276 2.32282C8.18098 2.32282 8.80365 2.585 9.27884 2.99465L5.05123 6.18994C4.88737 5.82945 4.78906 5.45257 4.78906 5.02653Z" fill="#3B4652"/>
</svg>
