<svg width="75" height="75" viewBox="0 0 75 75" fill="none" xmlns="http://www.w3.org/2000/svg">
<path d="M51.9188 67.5688C51.5813 67.5688 51.2375 67.4594 50.95 67.2313C41.5282 59.775 31.2407 51 28.4282 41.2219C27.2375 37.0813 29.6375 32.7469 33.7782 31.5532C37.9188 30.3688 42.2563 32.7657 43.4469 36.9032C45.1094 42.6813 56.3969 51.6157 60.6469 54.9782C61.325 55.5125 61.4375 56.4969 60.9032 57.1719C60.3688 57.85 59.3907 57.9657 58.7094 57.4282C50.6375 51.0407 42.1532 43.7063 40.4438 37.7657C39.7282 35.2813 37.1219 33.8469 34.6407 34.5563C32.1594 35.2719 30.7188 37.875 31.4313 40.3563C33.9875 49.2438 43.8469 57.6219 52.8875 64.7782C53.5657 65.3125 53.6782 66.2969 53.1438 66.9719C52.8375 67.3657 52.3813 67.5688 51.9188 67.5688Z" fill="#0C4ADA"/>
<path d="M12.1968 59.6596C11.5312 59.6596 10.9125 59.2315 10.7062 58.5627C10.4468 57.7377 10.9062 56.8627 11.7312 56.6065C13.4781 56.0596 18.9781 53.5877 16.4156 44.6783C14.9187 39.4627 15.5375 33.9752 18.1656 29.2315C20.7937 24.4815 25.1125 21.0408 30.3312 19.5408C40.8437 16.5471 51.9718 22.5158 55.2843 32.8783C56.0625 33.6096 61.3968 38.0158 65.0468 40.9783C65.7156 41.5221 65.8187 42.5065 65.275 43.1752C64.7343 43.8471 63.7468 43.9502 63.0781 43.4033C53.0312 35.2502 52.6968 34.6846 52.5343 34.4158C52.4687 34.3065 52.4187 34.1908 52.3812 34.0721C49.6718 25.1565 40.1625 19.9877 31.1906 22.5471C26.7781 23.8127 23.1218 26.7252 20.8968 30.7408C18.675 34.7565 18.15 39.4002 19.4156 43.8127C22.0781 53.0658 17.4406 58.094 12.6593 59.5877C12.5093 59.6346 12.3531 59.6596 12.1968 59.6596Z" fill="#0C4ADA"/>
<path d="M17.1871 65.625C16.5215 65.625 15.9058 65.1969 15.6964 64.5281C15.4371 63.7063 15.8965 62.8281 16.7214 62.5719C23.1965 60.5469 25.5527 57.2219 22.3965 42.8531C20.6871 35.0594 24.8371 27.6219 32.0496 25.5469C39.4964 23.4156 47.309 27.7313 49.4496 35.175C49.8839 36.6844 51.8683 39.5938 63.4652 48.775C64.1433 49.3094 64.2558 50.2938 63.7215 50.9719C63.1871 51.6469 62.2089 51.7688 61.5277 51.2281C48.7246 41.0969 47.0558 38.1688 46.4464 36.0438C44.7808 30.2563 38.7183 26.8938 32.909 28.5563C27.3027 30.1688 24.0933 36.0281 25.4464 42.1875C28.6621 56.8375 26.6964 62.7344 17.6496 65.5594C17.4996 65.6031 17.3402 65.625 17.1871 65.625Z" fill="#0C4ADA"/>
<path d="M56.2496 62.5001C55.8496 62.5001 55.4496 62.3469 55.1433 62.0438C54.5714 61.4719 53.3152 60.5188 51.8621 59.4157C46.2652 55.1688 36.8964 48.0626 34.4339 39.4938C34.1964 38.6626 34.6746 37.8001 35.5027 37.5594C36.3433 37.3219 37.1964 37.8001 37.4371 38.6282C39.6121 46.1969 48.4621 52.9094 53.7496 56.9219C55.359 58.1438 56.6308 59.1094 57.3527 59.8313C57.9621 60.4407 57.9621 61.4313 57.3527 62.0407C57.0496 62.3469 56.6496 62.5001 56.2496 62.5001Z" fill="#0C4ADA"/>
<path d="M32.8126 75C32.7782 75 32.747 75 32.7126 74.9969C31.8532 74.9438 31.197 74.2031 31.2501 73.3406C31.3657 71.5312 32.2001 62.5 37.5001 62.5C41.397 62.5 43.7438 65.6875 45.297 67.7969C45.7126 68.3594 46.0751 68.8656 46.4157 69.2094C47.0251 69.8187 47.0251 70.8094 46.4157 71.4188C45.8063 72.0281 44.8157 72.0281 44.2063 71.4188C43.7751 70.9875 43.3032 70.3625 42.7782 69.6531C41.4595 67.8562 39.8188 65.625 37.5001 65.625C35.8063 65.625 34.572 70.3031 34.372 73.5344C34.3188 74.3625 33.6313 75 32.8126 75Z" fill="#0C4ADA"/>
<path d="M23.4379 71.8748C22.7785 71.8748 22.166 71.4561 21.9504 70.7936C21.6847 69.9717 22.1347 69.0936 22.9535 68.8248C26.9035 67.5405 29.5316 59.3405 28.1972 55.1623C27.9347 54.3405 28.3879 53.4623 29.2097 53.1998C30.0316 52.9248 30.9097 53.3905 31.1722 54.2123C32.8316 59.403 29.9316 69.8467 23.916 71.7998C23.7597 71.8498 23.5972 71.8748 23.4379 71.8748Z" fill="#0C4ADA"/>
<path d="M10.9375 40.625C10.075 40.625 9.375 39.925 9.375 39.0625C9.375 24.4156 21.2906 12.5 35.9375 12.5C50.3563 12.5 55.5156 20.8281 59.2812 26.9094C61.0594 29.775 62.5938 32.2531 64.5469 32.8875C65.3688 33.1531 65.8187 34.0344 65.55 34.8563C65.2875 35.675 64.4094 36.1313 63.5813 35.8594C60.5375 34.8719 58.725 31.9438 56.625 28.5531C53.0563 22.7937 48.6156 15.625 35.9375 15.625C23.0125 15.625 12.5 26.1375 12.5 39.0625C12.5 39.925 11.8 40.625 10.9375 40.625Z" fill="#0C4ADA"/>
<path d="M12.5 51.5625C11.925 51.5625 11.375 51.2469 11.1 50.7C10.8125 50.1219 9.375 47.15 9.375 45.3125C9.375 44.45 10.075 43.75 10.9375 43.75C11.8 43.75 12.5 44.45 12.5 45.3125C12.5 46.1281 13.3344 48.175 13.8969 49.3C14.2844 50.0719 13.9688 51.0094 13.1969 51.3969C12.975 51.5094 12.7375 51.5625 12.5 51.5625Z" fill="#0C4ADA"/>
<path d="M57.8123 18.75C57.2842 18.75 56.7686 18.4844 56.4748 17.9969C54.9342 15.4594 46.3873 9.375 34.3748 9.375C21.8811 9.375 15.1936 15.7594 13.8342 17.9969C13.3905 18.7375 12.428 18.9688 11.6905 18.5219C10.953 18.075 10.7155 17.1156 11.1655 16.3781C12.8748 13.5594 20.378 6.25 34.3748 6.25C47.5373 6.25 57.003 12.8438 59.1467 16.3781C59.5967 17.1156 59.3592 18.075 58.6217 18.525C58.3686 18.6781 58.0905 18.75 57.8123 18.75Z" fill="#0C4ADA"/>
<path d="M51.5623 6.25C51.3935 6.25 51.2216 6.22188 51.0529 6.16563C50.4216 5.95 49.8216 5.725 49.2248 5.50625C45.9341 4.28125 42.8248 3.125 34.3748 3.125C26.8716 3.125 25.181 3.99062 22.8498 5.1875C22.2748 5.48125 21.6654 5.79375 20.9498 6.1125C20.1654 6.46875 19.2373 6.1125 18.8841 5.32812C18.531 4.54063 18.8841 3.61563 19.6685 3.2625C20.3279 2.96563 20.8873 2.67812 21.4185 2.40625C24.0435 1.0625 26.1154 0 34.3748 0C43.3873 0 46.9091 1.30938 50.3154 2.575C50.8904 2.7875 51.4654 3.00312 52.0716 3.2125C52.8873 3.49375 53.3216 4.38125 53.0404 5.19688C52.8154 5.84375 52.2091 6.25 51.5623 6.25Z" fill="#0C4ADA"/>
<path d="M64.0623 28.125C63.3998 28.125 62.7873 27.7031 62.5748 27.0375C61.8592 24.8094 59.6311 21.1656 59.6061 21.1313C59.153 20.3969 59.3842 19.4344 60.1186 18.9813C60.853 18.525 61.8155 18.7563 62.2686 19.4938C62.3686 19.6563 64.7217 23.4938 65.5498 26.0875C65.8123 26.9094 65.3592 27.7875 64.5373 28.05C64.378 28.1 64.2186 28.125 64.0623 28.125Z" fill="#0C4ADA"/>
</svg>
