<svg width="22" height="9" viewBox="0 0 22 9" fill="none" xmlns="http://www.w3.org/2000/svg">
<path d="M10.3129 4.56772V6.98772H9.54688V1.01172H11.5769C12.0919 1.01172 12.5309 1.18372 12.8899 1.52772C13.2569 1.87172 13.4399 2.29172 13.4399 2.78772C13.4399 3.29572 13.2569 3.71572 12.8899 4.05572C12.5349 4.39572 12.0959 4.56372 11.5769 4.56372H10.3129V4.56772ZM10.3129 1.74772V3.83172H11.5929C11.8969 3.83172 12.1519 3.72772 12.3509 3.52372C12.5549 3.31972 12.6579 3.07172 12.6579 2.79172C12.6584 2.65654 12.6315 2.52266 12.5787 2.39821C12.5259 2.27375 12.4484 2.16131 12.3509 2.06772C12.2544 1.96398 12.1369 1.8821 12.0061 1.8276C11.8754 1.77309 11.7345 1.74722 11.5929 1.75172H10.3129V1.74772ZM15.4429 2.76372C16.0099 2.76372 16.4569 2.91572 16.7829 3.21972C17.1109 3.52372 17.2739 3.93972 17.2739 4.46772V6.98772H16.5439V6.41972H16.5119C16.1969 6.88772 15.7739 7.11972 15.2479 7.11972C14.7969 7.11972 14.4219 6.98772 14.1179 6.71972C13.9727 6.59721 13.8566 6.4439 13.7781 6.27093C13.6995 6.09795 13.6605 5.90966 13.6639 5.71972C13.6639 5.29572 13.8239 4.95972 14.1429 4.71172C14.4619 4.45972 14.8889 4.33572 15.4189 4.33572C15.8739 4.33572 16.2489 4.41972 16.5399 4.58772V4.41172C16.5411 4.2821 16.5135 4.15382 16.4591 4.0362C16.4046 3.91858 16.3246 3.81457 16.2249 3.73172C16.022 3.54766 15.7568 3.44758 15.4829 3.45172C15.0559 3.45172 14.7169 3.63172 14.4699 3.99572L13.7959 3.57172C14.1659 3.03172 14.7169 2.76372 15.4429 2.76372ZM14.4529 5.73172C14.4529 5.93172 14.5379 6.09972 14.7089 6.23172C14.8769 6.36372 15.0759 6.43172 15.3039 6.43172C15.6269 6.43172 15.9139 6.31172 16.1649 6.07172C16.4169 5.83172 16.5449 5.55172 16.5449 5.22772C16.3049 5.03972 15.9739 4.94372 15.5469 4.94372C15.2359 4.94372 14.9769 5.01972 14.7689 5.16772C14.5579 5.32372 14.4539 5.51172 14.4539 5.73172H14.4529ZM21.4389 2.89572L18.8859 8.78372H18.0959L19.0459 6.72372L17.3619 2.89572H18.1959L19.4069 5.83172H19.4229L20.6039 2.89572H21.4379H21.4389Z" fill="#3C4043"/>
<path d="M7.26719 4.07986C7.26719 3.82986 7.24419 3.58986 7.20219 3.35986H3.99219V4.67986H5.84119C5.76619 5.11986 5.52419 5.49386 5.15519 5.74286V6.59986H6.25519C6.89819 6.00286 7.26619 5.12186 7.26619 4.07986H7.26719Z" fill="#4285F4"/>
<path d="M5.1555 5.74274C4.8495 5.94974 4.4545 6.07174 3.9925 6.07174C3.1015 6.07174 2.3445 5.46874 2.0745 4.65674H0.9375V5.53974C1.22124 6.10682 1.65718 6.58376 2.19654 6.91719C2.7359 7.25062 3.3574 7.4274 3.9915 7.42774C4.9155 7.42774 5.6915 7.12274 6.2545 6.59874L5.1545 5.74274H5.1555Z" fill="#34A853"/>
<path d="M1.96332 4.00189C1.96332 3.77389 2.00132 3.55389 2.07032 3.34589V2.46289H0.933319C0.693619 2.94044 0.569288 3.46756 0.570319 4.00189C0.570319 4.55589 0.701319 5.07789 0.933319 5.54089L2.06932 4.65789C1.99857 4.44641 1.96243 4.22489 1.96232 4.00189H1.96332Z" fill="#FABB05"/>
<path d="M3.9915 1.9319C4.4955 1.9319 4.9465 2.1059 5.3035 2.4459L6.2785 1.4689C5.66058 0.886295 4.84071 0.566165 3.9915 0.575899C3.3575 0.576144 2.73607 0.752771 2.19673 1.08602C1.65738 1.41927 1.22138 1.89601 0.9375 2.4629L2.0725 3.3459C2.3435 2.5339 3.1005 1.9319 3.9925 1.9319H3.9915Z" fill="#E94235"/>
</svg>
