<svg width="75" height="75" viewBox="0 0 75 75" fill="none" xmlns="http://www.w3.org/2000/svg">
<path d="M67.5004 39.8439C68.6722 37.0314 69.6097 34.2189 70.0785 31.172C71.2504 21.5626 64.2191 12.1876 54.3754 11.9532C46.8754 11.7189 40.3129 16.4064 38.2035 23.2032C37.9691 23.9064 36.7972 23.9064 36.5629 23.2032C34.4535 16.4064 27.891 11.7189 20.391 11.9532C10.5472 12.422 3.75036 21.5626 4.68786 31.172C7.26599 52.9689 37.5004 67.7345 37.5004 67.7345" stroke="#0C4ADA" stroke-width="4" stroke-miterlimit="10" stroke-linecap="round" stroke-linejoin="round"/>
<path d="M46.875 57.1875L56.25 43.125C56.7188 42.4219 57.4219 41.9531 58.3594 41.9531C59.7656 41.9531 60.9375 43.125 60.9375 44.5313V51.5625H64.9219C67.9688 51.5625 70.0781 54.1406 69.6094 57.1875L68.2031 64.2188C67.7344 66.3281 65.8594 67.9688 63.5156 67.9688H53.9062" stroke="#20BFFC" stroke-width="4" stroke-miterlimit="10" stroke-linecap="round" stroke-linejoin="round"/>
<path d="M46.875 67.9688V51.5625" stroke="#20BFFC" stroke-width="4" stroke-miterlimit="10" stroke-linecap="round" stroke-linejoin="round"/>
</svg>
