<svg width="38" height="31" viewBox="0 0 38 31" fill="none" xmlns="http://www.w3.org/2000/svg">
<path d="M7.43379 6.20006C7.75102 5.4342 7.38733 4.55617 6.62146 4.23894C5.8556 3.92171 4.97757 4.2854 4.66034 5.05126C4.34311 5.81713 4.7068 6.69516 5.47266 7.01239C6.23853 7.32962 7.11655 6.96593 7.43379 6.20006Z" fill="#868686"/>
<path d="M10.6757 7.04293C11.4579 6.76853 11.8696 5.91196 11.5952 5.12972C11.3208 4.34749 10.4642 3.9358 9.68199 4.21019C8.89975 4.48459 8.48807 5.34116 8.76246 6.1234C9.03686 6.90564 9.89343 7.31732 10.6757 7.04293Z" fill="#868686"/>
<path d="M14.3096 7.12696C15.1385 7.12696 15.8106 6.45495 15.8106 5.62598C15.8106 4.79701 15.1385 4.125 14.3096 4.125C13.4806 4.125 12.8086 4.79701 12.8086 5.62598C12.8086 6.45495 13.4806 7.12696 14.3096 7.12696Z" fill="#868686"/>
<path d="M19.5186 6.65237H28.0375C28.6041 6.65237 29.0639 6.19255 29.0639 5.62599C29.0639 5.05943 28.6041 4.59961 28.0375 4.59961H19.5186C18.952 4.59961 18.4922 5.05943 18.4922 5.62599C18.4922 6.19255 18.952 6.65237 19.5186 6.65237Z" fill="#868686"/>
<path d="M6.04982 11.5664C5.48326 11.5664 5.02344 12.0262 5.02344 12.5928C5.02344 13.1594 5.48326 13.6192 6.04982 13.6192H10.18C10.7465 13.6192 11.2064 13.1594 11.2064 12.5928C11.2064 12.0262 10.7465 11.5664 10.18 11.5664H6.04982Z" fill="#868686"/>
<path d="M13.1672 16.1084H6.04982C5.48326 16.1084 5.02344 16.5682 5.02344 17.1348C5.02344 17.7013 5.48326 18.1612 6.04982 18.1612H13.1672C13.7337 18.1612 14.1935 17.7013 14.1935 17.1348C14.1935 16.5682 13.7337 16.1084 13.1672 16.1084Z" fill="#868686"/>
<path d="M13.1672 20.6514H6.04982C5.48326 20.6514 5.02344 21.1112 5.02344 21.6777C5.02344 22.2443 5.48326 22.7041 6.04982 22.7041H13.1672C13.7337 22.7041 14.1935 22.2443 14.1935 21.6777C14.1935 21.1112 13.7337 20.6514 13.1672 20.6514Z" fill="#868686"/>
<path d="M34.7311 13.4653C34.4437 13.1779 34.1432 12.9119 33.832 12.6664V3.4897C33.832 1.56585 32.2661 0 30.3423 0H3.4897C1.56585 0 0 1.56585 0 3.4897V25.928C0 27.8527 1.56585 29.4177 3.4897 29.4177H21.9843C23.6101 30.4482 25.497 31 27.4684 31C30.2117 31 32.7917 29.9317 34.7311 27.9915C36.6706 26.0512 37.7396 23.4721 37.7396 20.7288C37.7396 17.9855 36.6714 15.4056 34.7311 13.4661V13.4653ZM2.05276 25.928V3.4897C2.05276 2.69733 2.69733 2.05276 3.4897 2.05276H30.3423C31.1347 2.05276 31.7792 2.69733 31.7792 3.4897V11.4051C27.9824 9.65455 23.3292 10.341 20.2049 13.4653C16.4024 17.2678 16.2111 23.3333 19.6285 27.365H3.4897C2.69733 27.365 2.05276 26.7204 2.05276 25.928ZM33.2794 26.5398C31.7267 28.0925 29.6632 28.9472 27.4676 28.9472C25.272 28.9472 23.2085 28.0925 21.6558 26.5398C18.4511 23.335 18.4511 18.121 21.6558 14.917C24.8606 11.7131 30.0746 11.7131 33.2786 14.917C34.8313 16.4697 35.686 18.5332 35.686 20.7288C35.686 22.9244 34.8313 24.9879 33.2786 26.5406L33.2794 26.5398Z" fill="#868686"/>
<path d="M30.5445 16.6265H25.6318C25.0652 16.6265 24.6054 17.0863 24.6054 17.6528C24.6054 18.2194 25.0652 18.6792 25.6318 18.6792H28.0664L23.6677 23.0779C23.267 23.4786 23.267 24.1289 23.6677 24.5296C23.8681 24.73 24.1308 24.8301 24.3936 24.8301C24.6563 24.8301 24.9191 24.73 25.1194 24.5296L29.5181 20.1309V22.5655C29.5181 23.1321 29.9779 23.5919 30.5445 23.5919C31.111 23.5919 31.5708 23.1321 31.5708 22.5655V17.6528C31.5708 17.0863 31.111 16.6265 30.5445 16.6265Z" fill="#868686"/>
</svg>
