<svg width="12" height="16" viewBox="0 0 12 16" fill="none" xmlns="http://www.w3.org/2000/svg">
<path d="M9 6.5H3C2.17157 6.5 1.5 7.17157 1.5 8V12.5C1.5 13.3284 2.17157 14 3 14H9C9.82843 14 10.5 13.3284 10.5 12.5V8C10.5 7.17157 9.82843 6.5 9 6.5ZM3.75 5H8.25V3.5C8.25 2.67157 7.57843 2 6.75 2H5.25C4.42157 2 3.75 2.67157 3.75 3.5V5ZM9.75 5.09451C11.0439 5.42755 12 6.60212 12 8V12.5C12 14.1569 10.6569 15.5 9 15.5H3C1.34315 15.5 0 14.1569 0 12.5V8C0 6.60212 0.95608 5.42755 2.25 5.09451V3.5C2.25 1.84315 3.59315 0.5 5.25 0.5H6.75C8.40685 0.5 9.75 1.84315 9.75 3.5V5.09451ZM6 11C6.41421 11 6.75 10.6642 6.75 10.25C6.75 9.83579 6.41421 9.5 6 9.5C5.58579 9.5 5.25 9.83579 5.25 10.25C5.25 10.6642 5.58579 11 6 11ZM6 12.5C4.75736 12.5 3.75 11.4926 3.75 10.25C3.75 9.00736 4.75736 8 6 8C7.24264 8 8.25 9.00736 8.25 10.25C8.25 11.4926 7.24264 12.5 6 12.5Z" fill="black"/>
</svg>
