<svg width="18" height="18" viewBox="0 0 18 18" fill="none" xmlns="http://www.w3.org/2000/svg">
<path d="M12.75 7.5C12.5511 7.5 12.3603 7.42098 12.2197 7.28033C12.079 7.13968 12 6.94891 12 6.75V4.5C12 3.70435 11.6839 2.94129 11.1213 2.37868C10.5587 1.81607 9.79565 1.5 9 1.5C8.20435 1.5 7.44129 1.81607 6.87868 2.37868C6.31607 2.94129 6 3.70435 6 4.5V6.75C6 6.94891 5.92098 7.13968 5.78033 7.28033C5.63968 7.42098 5.44891 7.5 5.25 7.5C5.05109 7.5 4.86032 7.42098 4.71967 7.28033C4.57902 7.13968 4.5 6.94891 4.5 6.75V4.5C4.5 3.30653 4.97411 2.16193 5.81802 1.31802C6.66193 0.474106 7.80653 0 9 0C10.1935 0 11.3381 0.474106 12.182 1.31802C13.0259 2.16193 13.5 3.30653 13.5 4.5V6.75C13.5 6.94891 13.421 7.13968 13.2803 7.28033C13.1397 7.42098 12.9489 7.5 12.75 7.5Z" fill="url(#paint0_linear_2451_12474)"/>
<path d="M13.5 6.75H4.5C3.25736 6.75 2.25 7.75736 2.25 9V15C2.25 16.2426 3.25736 17.25 4.5 17.25H13.5C14.7426 17.25 15.75 16.2426 15.75 15V9C15.75 7.75736 14.7426 6.75 13.5 6.75Z" fill="url(#paint1_linear_2451_12474)"/>
<path d="M9 15C8.80109 15 8.61032 14.921 8.46967 14.7803C8.32902 14.6397 8.25 14.4489 8.25 14.25V12C8.25 11.8011 8.32902 11.6103 8.46967 11.4697C8.61032 11.329 8.80109 11.25 9 11.25C9.19891 11.25 9.38968 11.329 9.53033 11.4697C9.67098 11.6103 9.75 11.8011 9.75 12V14.25C9.75 14.4489 9.67098 14.6397 9.53033 14.7803C9.38968 14.921 9.19891 15 9 15Z" fill="#3D3C44"/>
<path d="M9 12.75C9.82843 12.75 10.5 12.0784 10.5 11.25C10.5 10.4216 9.82843 9.75 9 9.75C8.17157 9.75 7.5 10.4216 7.5 11.25C7.5 12.0784 8.17157 12.75 9 12.75Z" fill="url(#paint2_linear_2451_12474)"/>
<defs>
<linearGradient id="paint0_linear_2451_12474" x1="9" y1="0.14325" x2="9" y2="6.738" gradientUnits="userSpaceOnUse">
<stop stop-color="#5D5C66"/>
<stop offset="1" stop-color="#48474F"/>
</linearGradient>
<linearGradient id="paint1_linear_2451_12474" x1="9" y1="6.81375" x2="9" y2="17.2508" gradientUnits="userSpaceOnUse">
<stop stop-color="#FFF650"/>
<stop offset="1" stop-color="#FFAB17"/>
</linearGradient>
<linearGradient id="paint2_linear_2451_12474" x1="-1.73896e-07" y1="9.68625" x2="9" y2="12.822" gradientUnits="userSpaceOnUse">
<stop stop-color="#5D5C66"/>
<stop offset="1" stop-color="#48474F"/>
</linearGradient>
</defs>
</svg>
