<svg width="75" height="75" viewBox="0 0 75 75" fill="none" xmlns="http://www.w3.org/2000/svg">
<path d="M58.5938 28.125V9.375C58.5938 6.79687 56.4844 4.6875 53.9062 4.6875H21.0938C18.5156 4.6875 16.4062 6.79687 16.4062 9.375V65.625C16.4062 68.2031 18.5156 70.3125 21.0938 70.3125H53.9062C56.4844 70.3125 58.5938 68.2031 58.5938 65.625V60.9375" stroke="#0C4ADA" stroke-width="2" stroke-miterlimit="10" stroke-linecap="round" stroke-linejoin="round"/>
<path d="M32.8125 14.0625H42.1875" stroke="#0C4ADA" stroke-width="2" stroke-miterlimit="10" stroke-linecap="round" stroke-linejoin="round"/>
<path d="M32.8125 43.125L44.5312 29.0625C45 28.3594 45.7031 27.8906 46.6406 27.8906C48.0469 27.8906 49.2188 29.0625 49.2188 30.4688V37.5H53.2031C56.25 37.5 58.3594 40.0781 57.8906 43.125L56.4844 50.1562C56.0156 52.2656 54.1406 53.9063 51.7969 53.9063H39.8438" stroke="#20BFFC" stroke-width="2" stroke-miterlimit="10" stroke-linecap="round" stroke-linejoin="round"/>
<path d="M32.8125 53.9062V37.5" stroke="#20BFFC" stroke-width="2" stroke-miterlimit="10" stroke-linecap="round" stroke-linejoin="round"/>
</svg>
