<svg width="16" height="17" viewBox="0 0 16 17" fill="none" xmlns="http://www.w3.org/2000/svg">
<path d="M8 0.0999756C3.58192 0.0999756 0 3.6819 0 8.09998C0 12.5181 3.58192 16.1 8 16.1C12.4181 16.1 16 12.5181 16 8.09998C16 3.6819 12.4181 0.0999756 8 0.0999756ZM11.2188 10.9711C10.6654 11.5887 9.94588 12.0338 9.1462 12.2532C8.34652 12.4726 7.50057 12.4571 6.70948 12.2085C5.9184 11.9598 5.21567 11.4886 4.68532 10.8511C4.15496 10.2137 3.81943 9.43694 3.71885 8.61382C3.59159 8.69803 3.43759 8.73195 3.28674 8.70901C3.13588 8.68607 2.99893 8.6079 2.90246 8.48967C2.80599 8.37144 2.75689 8.22159 2.76467 8.0692C2.77246 7.91681 2.83659 7.77275 2.94462 7.66498L3.85231 6.75728C3.96603 6.64358 4.11974 6.57891 4.28054 6.57711C4.44134 6.57532 4.59646 6.63654 4.71269 6.74767L5.66154 7.65536C5.76808 7.75647 5.83495 7.89235 5.85005 8.03846C5.86515 8.18456 5.8275 8.33125 5.74389 8.45202C5.66028 8.57278 5.53624 8.65966 5.39417 8.69695C5.2521 8.73425 5.10137 8.71949 4.96923 8.65536C5.07463 9.22251 5.33686 9.74877 5.72618 10.1745C6.11549 10.6001 6.61631 10.9082 7.17182 11.0637C7.72732 11.2192 8.31529 11.2159 8.86902 11.0542C9.42276 10.8925 9.92009 10.5788 10.3046 10.1488C10.415 10.0321 10.5666 9.96316 10.7271 9.95672C10.8876 9.95028 11.0443 10.0069 11.1636 10.1144C11.283 10.2219 11.3556 10.3718 11.3659 10.5321C11.3762 10.6924 11.3234 10.8504 11.2188 10.9723V10.9711ZM13.0558 8.53498L12.1481 9.44267C12.0344 9.55637 11.8806 9.62104 11.7198 9.62284C11.559 9.62464 11.4039 9.56342 11.2877 9.45228L10.3388 8.54459C10.2343 8.44401 10.1687 8.30974 10.1536 8.1655C10.1384 8.02125 10.1747 7.87628 10.2561 7.75619C10.3374 7.63609 10.4585 7.54857 10.5981 7.50908C10.7376 7.4696 10.8867 7.48067 11.0188 7.54036C10.9132 6.97447 10.6512 6.44947 10.2625 6.02479C9.87391 5.6001 9.37415 5.29269 8.81984 5.13735C8.26552 4.98201 7.67879 4.98495 7.12606 5.14583C6.57333 5.30671 6.07667 5.61911 5.69231 6.04767C5.63834 6.10782 5.57305 6.15676 5.50017 6.19168C5.42729 6.22661 5.34824 6.24683 5.26755 6.25121C5.18685 6.25558 5.10608 6.24402 5.02985 6.21718C4.95362 6.19034 4.88342 6.14875 4.82327 6.09478C4.76311 6.04082 4.71418 5.97553 4.67925 5.90265C4.64433 5.82977 4.6241 5.75072 4.61973 5.67002C4.61535 5.58932 4.62691 5.50856 4.65375 5.43233C4.68059 5.3561 4.72219 5.2859 4.77615 5.22575C5.32999 4.60824 6.05011 4.16348 6.85024 3.94475C7.65038 3.72603 8.4966 3.7426 9.28756 3.9925C10.0785 4.24239 10.7807 4.715 11.3099 5.35373C11.8391 5.99245 12.173 6.7702 12.2715 7.59382C12.3979 7.50765 12.5519 7.47164 12.7034 7.49282C12.8549 7.51399 12.993 7.59082 13.091 7.70834C13.1889 7.82585 13.2395 7.97563 13.233 8.12845C13.2265 8.28128 13.1633 8.42621 13.0558 8.53498Z" fill="#808080"/>
</svg>
