<svg width="75" height="75" viewBox="0 0 75 75" fill="none" xmlns="http://www.w3.org/2000/svg">
<path d="M63.2812 18.75V67.9688L54.6094 63.2812L46.875 67.9688L37.5 63.2812L28.125 67.9688L20.8594 63.2812L11.7188 67.9688V16.4062C11.7188 12.4219 14.7656 9.375 18.75 9.375H56.25" stroke="#0C4ADA" stroke-width="4" stroke-miterlimit="10" stroke-linecap="round" stroke-linejoin="round"/>
<path d="M39.8438 25.7812H25.7812" stroke="#20BFFC" stroke-width="4" stroke-miterlimit="10" stroke-linecap="round" stroke-linejoin="round"/>
<path d="M39.8438 37.5H25.7812" stroke="#20BFFC" stroke-width="4" stroke-miterlimit="10" stroke-linecap="round" stroke-linejoin="round"/>
<path d="M49.2188 28.125C50.5132 28.125 51.5625 27.0757 51.5625 25.7812C51.5625 24.4868 50.5132 23.4375 49.2188 23.4375C47.9243 23.4375 46.875 24.4868 46.875 25.7812C46.875 27.0757 47.9243 28.125 49.2188 28.125Z" fill="#20BFFC"/>
<path d="M49.2188 39.8438C50.5132 39.8438 51.5625 38.7944 51.5625 37.5C51.5625 36.2056 50.5132 35.1562 49.2188 35.1562C47.9243 35.1562 46.875 36.2056 46.875 37.5C46.875 38.7944 47.9243 39.8438 49.2188 39.8438Z" fill="#20BFFC"/>
<path d="M39.8438 49.2188H25.7812" stroke="#20BFFC" stroke-width="4" stroke-miterlimit="10" stroke-linecap="round" stroke-linejoin="round"/>
<path d="M49.2188 51.5625C50.5132 51.5625 51.5625 50.5132 51.5625 49.2188C51.5625 47.9243 50.5132 46.875 49.2188 46.875C47.9243 46.875 46.875 47.9243 46.875 49.2188C46.875 50.5132 47.9243 51.5625 49.2188 51.5625Z" fill="#20BFFC"/>
</svg>
