<svg width="37" height="37" viewBox="0 0 37 37" fill="none" xmlns="http://www.w3.org/2000/svg">
<path d="M18.199 9.08301C13.1719 9.08301 9.08203 13.1737 9.08203 18.2008C9.08203 23.2278 13.1719 27.3186 18.199 27.3186C23.2253 27.3186 27.3158 23.229 27.3158 18.2008C27.3158 13.1728 23.2253 9.08301 18.199 9.08301Z" fill="#FDC221"/>
<path d="M18.2006 6.40276C17.2183 6.40276 16.4219 5.60644 16.4219 4.62518V1.7787C16.4219 0.79632 17.2183 0 18.2006 0C19.1828 0 19.9793 0.79632 19.9793 1.7787V4.62532C19.9793 5.60658 19.1825 6.40276 18.2006 6.40276Z" fill="#FDC221"/>
<path d="M18.2006 29.9961C17.2183 29.9961 16.4219 30.7924 16.4219 31.7745V34.6207C16.4219 35.6035 17.2183 36.3998 18.2006 36.3998C19.1828 36.3998 19.9793 35.6035 19.9793 34.6207V31.7745C19.9793 30.7924 19.1825 29.9961 18.2006 29.9961Z" fill="#FDC221"/>
<path d="M26.5401 9.8578C25.846 9.16326 25.846 8.03779 26.5401 7.34297L28.5521 5.33006C29.246 4.63608 30.3728 4.63608 31.0686 5.33006C31.7623 6.02474 31.7623 7.15146 31.0686 7.84586L29.0556 9.8578C28.3607 10.5529 27.2356 10.5529 26.5401 9.8578Z" fill="#FDC221"/>
<path d="M9.85713 26.5421C9.16259 25.8473 8.03713 25.8473 7.34231 26.5421L5.32939 28.5541C4.63527 29.2483 4.63471 30.3764 5.32939 31.0699C6.02407 31.7633 7.15079 31.7633 7.84519 31.0699L9.85713 29.0567C10.5522 28.3621 10.5522 27.2353 9.85713 26.5421Z" fill="#FDC221"/>
<path d="M29.9961 18.2001C29.9961 17.2178 30.7924 16.4214 31.7745 16.4214H34.6206C35.6035 16.4214 36.3998 17.2178 36.3998 18.2001C36.3998 19.1823 35.6035 19.9782 34.6206 19.9782H31.7745C30.7924 19.9782 29.9961 19.1822 29.9961 18.2001Z" fill="#FDC221"/>
<path d="M6.40276 18.2001C6.40276 17.2178 5.60644 16.4214 4.62378 16.4214H1.7787C0.79632 16.4214 0 17.2178 0 18.2001C0 19.1823 0.79632 19.9782 1.7787 19.9782H4.62532C5.60658 19.9782 6.40276 19.1822 6.40276 18.2001Z" fill="#FDC221"/>
<path d="M26.5412 26.5421C27.2353 25.8486 28.3619 25.8486 29.0566 26.5421L31.0695 28.5552C31.7632 29.2483 31.7632 30.3765 31.0695 31.0699C30.3737 31.7633 29.2482 31.7633 28.553 31.0699L26.5411 29.0578C25.8457 28.3621 25.8457 27.2368 26.5412 26.5421Z" fill="#FDC221"/>
<path d="M9.85734 9.85804C10.5524 9.1635 10.5524 8.03804 9.85734 7.34322L7.8454 5.33128C7.15058 4.63632 6.02428 4.63632 5.3296 5.33128C4.63492 6.02498 4.63492 7.1517 5.3296 7.8461L7.34252 9.85804C8.03734 10.5543 9.1628 10.5543 9.85734 9.85804Z" fill="#FDC221"/>
</svg>
