<svg width="36" height="36" viewBox="0 0 36 36" fill="none" xmlns="http://www.w3.org/2000/svg">
<path d="M28.8562 23.4562C28.6312 22.5 28.35 21.8812 27.9563 21.7687C26.6063 21.4312 21.9375 20.1937 21.9375 20.1937L18.1125 23.5125L14.4 20.25C14.4 20.25 9.5625 21.4312 8.15625 21.825C6.75 22.2187 6.46875 29.8125 6.46875 32.0625" stroke="black" stroke-miterlimit="10" stroke-linecap="round" stroke-linejoin="round"/>
<path d="M22.8349 7.42502C22.2161 4.44377 19.3474 3.99377 17.9411 3.99377C16.2536 3.99377 13.5536 4.38752 13.1036 7.93127C12.7661 10.6875 14.0036 14.175 14.9599 15.3563C15.9724 16.65 16.9286 17.325 18.2224 17.325C19.4036 17.325 20.2474 16.7625 21.3161 15.1875C22.2724 13.6688 23.3411 9.95627 22.8349 7.42502Z" stroke="black" stroke-miterlimit="10" stroke-linecap="round" stroke-linejoin="round"/>
<path d="M17.4375 28.6875H20.25" stroke="black" stroke-width="0.5" stroke-miterlimit="10" stroke-linecap="round" stroke-linejoin="round"/>
<path d="M18.2266 29.9812L19.7453 27.3937" stroke="black" stroke-width="0.5" stroke-miterlimit="10" stroke-linecap="round" stroke-linejoin="round"/>
<path d="M19.7453 29.9812L18.2266 27.3937" stroke="black" stroke-width="0.5" stroke-miterlimit="10" stroke-linecap="round" stroke-linejoin="round"/>
<path d="M22.5 28.6875H25.3125" stroke="black" stroke-width="0.5" stroke-miterlimit="10" stroke-linecap="round" stroke-linejoin="round"/>
<path d="M23.0078 29.9812L24.5266 27.3937" stroke="black" stroke-width="0.5" stroke-miterlimit="10" stroke-linecap="round" stroke-linejoin="round"/>
<path d="M24.5266 29.9812L23.0078 27.3937" stroke="black" stroke-width="0.5" stroke-miterlimit="10" stroke-linecap="round" stroke-linejoin="round"/>
<path d="M27 28.6875H29.8125" stroke="black" stroke-width="0.5" stroke-miterlimit="10" stroke-linecap="round" stroke-linejoin="round"/>
<path d="M27.7344 29.9812L29.2531 27.3937" stroke="black" stroke-width="0.5" stroke-miterlimit="10" stroke-linecap="round" stroke-linejoin="round"/>
<path d="M29.2531 29.9812L27.7344 27.3937" stroke="black" stroke-width="0.5" stroke-miterlimit="10" stroke-linecap="round" stroke-linejoin="round"/>
<path d="M32.0625 31.5C32.0625 31.8375 31.8375 32.0625 31.5 32.0625H15.1875C14.85 32.0625 14.625 31.8375 14.625 31.5V25.875C14.625 25.5375 14.85 25.3125 15.1875 25.3125H31.5C31.8375 25.3125 32.0625 25.5375 32.0625 25.875V31.5Z" stroke="black" stroke-miterlimit="10" stroke-linecap="round" stroke-linejoin="round"/>
</svg>
