<svg width="18" height="18" viewBox="0 0 18 18" fill="none" xmlns="http://www.w3.org/2000/svg">
<path d="M15.75 6.75V3.375C15.75 2.75625 15.2438 2.25 14.625 2.25H11.25" stroke="#2E2F32" stroke-miterlimit="10" stroke-linecap="round" stroke-linejoin="round"/>
<path d="M6.75 2.25H3.375C2.75625 2.25 2.25 2.75625 2.25 3.375V6.75" stroke="#2E2F32" stroke-miterlimit="10" stroke-linecap="round" stroke-linejoin="round"/>
<path d="M11.25 15.75H14.625C15.2438 15.75 15.75 15.2438 15.75 14.625V11.25" stroke="#2E2F32" stroke-miterlimit="10" stroke-linecap="round" stroke-linejoin="round"/>
<path d="M2.25 11.25V14.625C2.25 15.2438 2.75625 15.75 3.375 15.75H6.75" stroke="#2E2F32" stroke-miterlimit="10" stroke-linecap="round" stroke-linejoin="round"/>
<path d="M9 8.71875C9.77665 8.71875 10.4062 8.08915 10.4062 7.3125C10.4062 6.53585 9.77665 5.90625 9 5.90625C8.22335 5.90625 7.59375 6.53585 7.59375 7.3125C7.59375 8.08915 8.22335 8.71875 9 8.71875Z" stroke="#2E2F32" stroke-miterlimit="10" stroke-linecap="round" stroke-linejoin="round"/>
<path d="M11.7004 12.2625L11.5879 11.8125C11.4191 11.1375 10.8566 10.6875 10.1816 10.6875H7.76289C7.08789 10.6875 6.52539 11.1375 6.35664 11.8125L6.24414 12.3187" stroke="#2E2F32" stroke-miterlimit="10" stroke-linecap="round" stroke-linejoin="round"/>
</svg>
