<svg width="234" height="40" viewBox="0 0 234 40" fill="none" xmlns="http://www.w3.org/2000/svg">
<path d="M13.36 35.4667L10.2937 30.7733C9.765 30.0267 9.97647 28.96 10.7166 28.4267C11.351 28 12.1969 28 12.8313 28.4267L16.4264 31.3067V22.1333C16.4264 20.96 17.378 20 18.5411 20C19.7042 20 20.6558 20.96 20.6558 22.1333V29.6H23.8279C25.6254 29.6 27 30.9867 27 32.8V36" stroke="#20BFFC" stroke-miterlimit="10" stroke-linecap="round" stroke-linejoin="round"/>
<path d="M18 16C19.1046 16 20 15.1046 20 14C20 12.8954 19.1046 12 18 12C16.8954 12 16 12.8954 16 14C16 15.1046 16.8954 16 18 16Z" fill="#0C4ADA"/>
<path d="M18 8C19.1046 8 20 7.10457 20 6C20 4.89543 19.1046 4 18 4C16.8954 4 16 4.89543 16 6C16 7.10457 16.8954 8 18 8Z" fill="#0C4ADA"/>
<path d="M10 16C11.1046 16 12 15.1046 12 14C12 12.8954 11.1046 12 10 12C8.89543 12 8 12.8954 8 14C8 15.1046 8.89543 16 10 16Z" fill="#0C4ADA"/>
<path d="M10 8C11.1046 8 12 7.10457 12 6C12 4.89543 11.1046 4 10 4C8.89543 4 8 4.89543 8 6C8 7.10457 8.89543 8 10 8Z" fill="#0C4ADA"/>
<path d="M2 16C3.10457 16 4 15.1046 4 14C4 12.8954 3.10457 12 2 12C0.895431 12 0 12.8954 0 14C0 15.1046 0.895431 16 2 16Z" fill="#0C4ADA"/>
<path d="M10 24C11.1046 24 12 23.1046 12 22C12 20.8954 11.1046 20 10 20C8.89543 20 8 20.8954 8 22C8 23.1046 8.89543 24 10 24Z" fill="#0C4ADA"/>
<path d="M2 24C3.10457 24 4 23.1046 4 22C4 20.8954 3.10457 20 2 20C0.895431 20 0 20.8954 0 22C0 23.1046 0.895431 24 2 24Z" fill="#0C4ADA"/>
<path d="M2 8C3.10457 8 4 7.10457 4 6C4 4.89543 3.10457 4 2 4C0.895431 4 0 4.89543 0 6C0 7.10457 0.895431 8 2 8Z" fill="#0C4ADA"/>
<path d="M40.432 6.6C42.5867 6.6 44.4 7.32533 45.872 8.776C47.344 10.2267 48.08 12.008 48.08 14.12C48.08 16.232 47.344 18.0133 45.872 19.464C44.4 20.9147 42.5867 21.64 40.432 21.64H36.496V29H32.08V6.6H40.432ZM40.432 17.512C41.3707 17.512 42.1493 17.192 42.768 16.552C43.3867 15.8907 43.696 15.08 43.696 14.12C43.696 13.1387 43.3867 12.328 42.768 11.688C42.1493 11.048 41.3707 10.728 40.432 10.728H36.496V17.512H40.432ZM63.3325 27.016C61.6898 28.6373 59.6845 29.448 57.3165 29.448C54.9485 29.448 52.9432 28.6373 51.3005 27.016C49.6792 25.3733 48.8685 23.368 48.8685 21C48.8685 18.632 49.6792 16.6373 51.3005 15.016C52.9432 13.3733 54.9485 12.552 57.3165 12.552C59.6845 12.552 61.6898 13.3733 63.3325 15.016C64.9752 16.6373 65.7965 18.632 65.7965 21C65.7965 23.368 64.9752 25.3733 63.3325 27.016ZM54.2125 24.168C55.0445 25 56.0792 25.416 57.3165 25.416C58.5538 25.416 59.5885 25 60.4205 24.168C61.2525 23.336 61.6685 22.28 61.6685 21C61.6685 19.72 61.2525 18.664 60.4205 17.832C59.5885 17 58.5538 16.584 57.3165 16.584C56.0792 16.584 55.0445 17 54.2125 17.832C53.4018 18.664 52.9965 19.72 52.9965 21C52.9965 22.28 53.4018 23.336 54.2125 24.168ZM76.3165 29.448C73.9058 29.448 71.8898 28.6373 70.2685 27.016C68.6685 25.3947 67.8685 23.3893 67.8685 21C67.8685 18.6107 68.6685 16.6053 70.2685 14.984C71.8898 13.3627 73.9058 12.552 76.3165 12.552C77.8738 12.552 79.2925 12.9253 80.5725 13.672C81.8525 14.4187 82.8232 15.4213 83.4845 16.68L79.9325 18.76C79.6125 18.0987 79.1218 17.576 78.4605 17.192C77.8205 16.808 77.0952 16.616 76.2845 16.616C75.0472 16.616 74.0232 17.032 73.2125 17.864C72.4018 18.6747 71.9965 19.72 71.9965 21C71.9965 22.2587 72.4018 23.304 73.2125 24.136C74.0232 24.9467 75.0472 25.352 76.2845 25.352C77.1165 25.352 77.8525 25.1707 78.4925 24.808C79.1538 24.424 79.6445 23.9013 79.9645 23.24L83.5485 25.288C82.8445 26.5467 81.8525 27.56 80.5725 28.328C79.2925 29.0747 77.8738 29.448 76.3165 29.448ZM100.484 29H95.6838L89.8598 21.736V29H85.7318V6.6H89.8598V20.04L95.3638 13H100.292L93.8598 20.904L100.484 29ZM104.876 22.696C105.431 24.7013 106.935 25.704 109.388 25.704C110.967 25.704 112.161 25.1707 112.972 24.104L116.3 26.024C114.721 28.3067 112.396 29.448 109.324 29.448C106.679 29.448 104.556 28.648 102.956 27.048C101.356 25.448 100.556 23.432 100.556 21C100.556 18.5893 101.345 16.584 102.924 14.984C104.503 13.3627 106.529 12.552 109.004 12.552C111.351 12.552 113.281 13.3627 114.796 14.984C116.332 16.6053 117.1 18.6107 117.1 21C117.1 21.5333 117.047 22.0987 116.94 22.696H104.876ZM104.812 19.496H112.972C112.737 18.408 112.247 17.5973 111.5 17.064C110.775 16.5307 109.943 16.264 109.004 16.264C107.895 16.264 106.977 16.552 106.252 17.128C105.527 17.6827 105.047 18.472 104.812 19.496ZM128.665 16.968H125.049V23.624C125.049 24.1787 125.188 24.584 125.465 24.84C125.742 25.096 126.148 25.2453 126.681 25.288C127.214 25.3093 127.876 25.2987 128.665 25.256V29C125.828 29.32 123.822 29.0533 122.649 28.2C121.497 27.3467 120.921 25.8213 120.921 23.624V16.968H118.137V13H120.921V9.768L125.049 8.52V13H128.665V16.968ZM136.434 24.776H144.978V29H132.018V6.6H136.434V24.776ZM150.47 22.696C151.024 24.7013 152.528 25.704 154.982 25.704C156.56 25.704 157.755 25.1707 158.566 24.104L161.894 26.024C160.315 28.3067 157.99 29.448 154.918 29.448C152.272 29.448 150.15 28.648 148.55 27.048C146.95 25.448 146.15 23.432 146.15 21C146.15 18.5893 146.939 16.584 148.518 14.984C150.096 13.3627 152.123 12.552 154.598 12.552C156.944 12.552 158.875 13.3627 160.39 14.984C161.926 16.6053 162.694 18.6107 162.694 21C162.694 21.5333 162.64 22.0987 162.534 22.696H150.47ZM150.406 19.496H158.566C158.331 18.408 157.84 17.5973 157.094 17.064C156.368 16.5307 155.536 16.264 154.598 16.264C153.488 16.264 152.571 16.552 151.846 17.128C151.12 17.6827 150.64 18.472 150.406 19.496ZM177.579 6.6H181.707V29H177.579V27.112C176.363 28.6693 174.635 29.448 172.395 29.448C170.24 29.448 168.395 28.6373 166.859 27.016C165.344 25.3733 164.587 23.368 164.587 21C164.587 18.632 165.344 16.6373 166.859 15.016C168.395 13.3733 170.24 12.552 172.395 12.552C174.635 12.552 176.363 13.3307 177.579 14.888V6.6ZM169.963 24.264C170.816 25.096 171.883 25.512 173.163 25.512C174.443 25.512 175.499 25.096 176.331 24.264C177.163 23.4107 177.579 22.3227 177.579 21C177.579 19.6773 177.163 18.6 176.331 17.768C175.499 16.9147 174.443 16.488 173.163 16.488C171.883 16.488 170.816 16.9147 169.963 17.768C169.131 18.6 168.715 19.6773 168.715 21C168.715 22.3227 169.131 23.4107 169.963 24.264ZM197.738 13H201.77V28.232C201.77 30.7067 200.948 32.5947 199.306 33.896C197.684 35.1973 195.722 35.848 193.418 35.848C191.69 35.848 190.164 35.5173 188.842 34.856C187.54 34.1947 186.538 33.224 185.834 31.944L189.354 29.928C190.164 31.4213 191.562 32.168 193.546 32.168C194.847 32.168 195.871 31.8267 196.618 31.144C197.364 30.4613 197.738 29.4907 197.738 28.232V26.504C196.522 28.1253 194.815 28.936 192.618 28.936C190.356 28.936 188.458 28.1467 186.922 26.568C185.407 24.968 184.65 23.0267 184.65 20.744C184.65 18.4827 185.418 16.552 186.954 14.952C188.49 13.352 190.378 12.552 192.618 12.552C194.815 12.552 196.522 13.3627 197.738 14.984V13ZM190.026 23.912C190.879 24.7227 191.956 25.128 193.258 25.128C194.559 25.128 195.626 24.7227 196.458 23.912C197.311 23.08 197.738 22.024 197.738 20.744C197.738 19.4853 197.311 18.4507 196.458 17.64C195.626 16.808 194.559 16.392 193.258 16.392C191.956 16.392 190.879 16.808 190.026 17.64C189.194 18.4507 188.778 19.4853 188.778 20.744C188.778 22.024 189.194 23.08 190.026 23.912ZM209.001 22.696C209.556 24.7013 211.06 25.704 213.513 25.704C215.092 25.704 216.286 25.1707 217.097 24.104L220.425 26.024C218.846 28.3067 216.521 29.448 213.449 29.448C210.804 29.448 208.681 28.648 207.081 27.048C205.481 25.448 204.681 23.432 204.681 21C204.681 18.5893 205.47 16.584 207.049 14.984C208.628 13.3627 210.654 12.552 213.129 12.552C215.476 12.552 217.406 13.3627 218.921 14.984C220.457 16.6053 221.225 18.6107 221.225 21C221.225 21.5333 221.172 22.0987 221.065 22.696H209.001ZM208.937 19.496H217.097C216.862 18.408 216.372 17.5973 215.625 17.064C214.9 16.5307 214.068 16.264 213.129 16.264C212.02 16.264 211.102 16.552 210.377 17.128C209.652 17.6827 209.172 18.472 208.937 19.496ZM228.235 15.752C228.619 14.728 229.248 13.96 230.123 13.448C231.019 12.936 232.011 12.68 233.099 12.68V17.288C231.84 17.1387 230.709 17.3947 229.707 18.056C228.725 18.7173 228.235 19.816 228.235 21.352V29H224.107V13H228.235V15.752Z" fill="#363735"/>
</svg>
